<?xml version="1.0" encoding="utf-8"?>
<svg width="66px" height="71px" viewBox="0 0 66 71" version="1.1" xmlns:xlink="http://www.w3.org/1999/xlink" xmlns="http://www.w3.org/2000/svg">
  <desc>Created with Lunacy</desc>
  <path d="M49.9999 8.3337L49.9999 41.6663C49.9865 46.2632 46.2632 49.9865 41.6663 50L8.33364 50C3.73666 49.9865 0.0134232 46.2633 -6.10352e-05 41.6663L-6.10352e-05 8.3337C0.0134071 3.73676 3.73663 0.0135022 8.33361 0L41.6662 0C46.2632 0.0134672 49.9865 3.73671 49.9999 8.3337ZM32.2543 24.3874C36.9865 25.3986 37.7287 29.4968 37.7287 31.9042C37.7287 37.3885 33.4318 38.9019 31.8458 39.3952C29.6765 40.0708 28.4125 40.0672 20.1612 40.0438C18.3389 40.0386 16.1758 40.0325 13.5869 40.0325L13.5869 10.8662L27.761 10.8662C36.4592 10.8662 36.4271 17.048 36.4219 18.0398C36.4218 18.061 36.4217 18.0798 36.4217 18.0961C36.4217 21.153 34.8112 23.2144 32.2543 24.3059L32.2543 24.3874ZM27.0315 23.0806L27.0256 23.0806L18.6931 23.0806L18.6931 15.0248L27.0256 15.0248C30.9241 15.0248 31.3158 17.296 31.3158 19.0281C31.3158 23.1319 27.2215 23.0829 27.0315 23.0806ZM32.6223 31.242C32.6223 35.8846 28.3573 35.8683 27.7517 35.8659L27.7205 35.8658L18.6926 35.8658L18.6926 26.7487L27.7205 26.7487C32.4705 26.7487 32.6223 30.3089 32.6223 31.242Z" transform="matrix(0.7071067 -0.7071067 0.7071067 0.7071067 0 35.35535)" id="bootstrap" fill="#4A2F8F" fill-rule="evenodd" stroke="none" />
</svg>