<?xml version="1.0" encoding="utf-8"?>
<svg width="71px" height="71px" viewBox="0 0 71 71" version="1.1" xmlns:xlink="http://www.w3.org/1999/xlink" xmlns="http://www.w3.org/2000/svg">
  <desc>Created with Lunacy</desc>
  <path d="M17.024 48.219L21.7893 49.9475C22.2892 50.1331 22.8048 49.7718 22.9533 49.1468L33.6165 3.22879C33.7571 2.60379 33.4759 1.94949 32.9759 1.77371L28.2107 0.0451978C27.7107 -0.130583 27.1873 0.220979 27.0467 0.845979L16.3835 46.764C16.2428 47.389 16.5241 48.0432 17.024 48.219ZM49.7009 25.8553L38.444 39.0487C38.0612 39.4882 37.4675 39.4686 37.1159 38.9901L33.7178 34.4589C33.3506 33.9804 33.3819 33.2186 33.7803 32.7792L40.8578 24.996L33.7803 17.203C33.3819 16.7635 33.3584 16.0018 33.7178 15.5233L37.1159 10.9921C37.4753 10.5233 38.069 10.5038 38.444 10.9432L49.7009 24.1464C50.0993 24.6053 50.0993 25.3964 49.7009 25.8553ZM12.8838 38.9905L16.282 34.4592C16.6413 33.9807 16.6179 33.219 16.2195 32.7795L9.14189 24.9963L16.2195 17.2131C16.6179 16.7737 16.6491 16.012 16.282 15.5335L12.8838 11.0022C12.5322 10.5335 11.9385 10.5042 11.5558 10.9534L0.298835 24.137C-0.099571 24.596 -0.099571 25.387 0.298835 25.846L11.5558 39.0393C11.9385 39.4885 12.5322 39.469 12.8838 38.9905Z" transform="matrix(0.7071067 -0.7071067 0.7071067 0.7071067 0 35.3551)" id="code" fill="#1DAAA9" fill-rule="evenodd" stroke="none" />
</svg>