<?xml version="1.0" encoding="utf-8"?>
<svg width="61px" height="61px" viewBox="0 0 61 61" version="1.1" xmlns:xlink="http://www.w3.org/1999/xlink" xmlns="http://www.w3.org/2000/svg">
  <desc>Created with Lunacy</desc>
  <path d="M30.0016 27.457L15.0029 27.457C10.8626 27.457 7.50351 24.1029 7.50351 19.9687L7.50351 1.87196C7.50351 0.834513 8.33937 -0.00012207 9.37835 -0.00012207L40.0007 -0.00012207C45.5159 -0.00012207 49.9998 4.47726 49.9998 9.98429C49.9998 15.4913 45.5159 19.9687 40.0007 19.9687L37.5009 19.9687C37.5009 24.1029 34.1418 27.457 30.0016 27.457ZM40.0008 4.99243C42.7584 4.99243 45.0004 7.23112 45.0004 9.98464C45.0004 12.7382 42.7584 14.9768 40.0008 14.9768L37.501 14.9768L37.501 4.99243L40.0008 4.99243ZM3.77748 34.9456L43.7272 34.9456C47.4534 34.9456 48.4846 29.9534 46.5316 29.9534L0.965223 29.9534C-0.987734 29.9534 0.0590509 34.9456 3.77748 34.9456Z" transform="matrix(0.7071067 -0.7071067 0.7071067 0.7071067 0 35.35522)" id="coffee" fill="#D52429" fill-rule="evenodd" stroke="none" />
</svg>