<?xml version="1.0" encoding="utf-8"?>
<svg width="67px" height="71px" viewBox="0 0 67 71" version="1.1" xmlns:xlink="http://www.w3.org/1999/xlink" xmlns="http://www.w3.org/2000/svg">
  <desc>Created with Lunacy</desc>
  <path d="M23.7593 49.9433C23.5941 49.9165 23.3489 49.8551 23.2144 49.8068C22.9154 49.6993 2.15408 39.0439 1.83269 38.8329C1.14112 38.3789 0.595068 37.6933 0.220654 36.8089C0.200575 36.7615 0.182328 36.7224 0.165745 36.6828C0.123974 36.5831 0.0927645 36.4798 0.0694444 36.2301L0.0203089 36.0825L0.0203132 35.7265C0.00756838 35.392 0.00188092 33.3776 0.00138142 30.6982C0.000416714 29.5499 0.000378126 28.1697 0.00033525 26.5078C0.000320244 26.0428 0.000309525 25.5558 0.000275224 25.0456C0.00023878 24.5182 0.000185185 24.0154 0.000129447 23.536C-0.000385062 18.8669 -0.000653035 16.4206 0.0203132 15.0912L0.0203132 13.9533L0.0694337 13.8058C0.0931376 13.556 0.124863 13.4511 0.167289 13.3498C0.184615 13.3084 0.203727 13.2676 0.224807 13.2178C0.545264 12.4603 1.14376 11.7086 1.7552 11.2955C2.00854 11.1244 22.3639 0.635324 22.9938 0.351305C23.5123 0.117552 24.1826 0 24.997 0C25.8072 0 26.4713 0.114053 26.9731 0.33938C27.6266 0.632798 47.9717 11.1142 48.2387 11.2951C48.8429 11.7041 49.4746 12.4848 49.7741 13.1924C49.7932 13.2377 49.8108 13.2758 49.8268 13.3143C49.8714 13.422 49.9042 13.5335 49.9283 13.8181L49.9735 13.9536L49.9735 15.0744C49.9819 15.613 49.987 16.3328 49.99 17.3057C49.9915 17.7769 49.9925 18.3089 49.9931 18.9105C49.9935 19.2628 49.9938 19.6385 49.994 20.0392C50.0019 22.9668 50.002 26.4736 49.9944 29.4668C49.9942 31.5812 49.9922 33.0479 49.9834 34.0778C49.9809 34.5116 49.9776 34.859 49.9734 35.1352L49.9734 36.0455L49.9343 36.1612C49.9117 36.4683 49.8805 36.5841 49.8377 36.6965C49.8244 36.7313 49.81 36.7658 49.7944 36.8056C49.5018 37.5504 48.8695 38.3521 48.2396 38.7771C48.0085 38.933 28.5328 48.9737 27.1457 49.6521C26.7365 49.8522 26.4128 49.9436 25.8427 49.9784C25.6578 49.9979 25.4311 50.0008 24.9811 49.9998C24.6393 49.9991 24.4262 49.9967 24.262 49.9866C24.1258 49.9846 24.036 49.9814 24.0174 49.9773L24.0178 49.9773C23.9997 49.9733 23.9809 49.9691 23.9616 49.9646C23.876 49.9582 23.8071 49.951 23.7593 49.9433ZM26.0175 39.7702C29.0146 39.5938 31.8321 38.7368 34.3083 37.2482C35.8699 36.3094 37.4639 34.9274 38.5346 33.5838C38.8718 33.1607 39.3286 32.5226 39.3286 32.4747C39.3286 32.4565 37.7772 31.6438 35.8811 30.6688C33.9849 29.6938 32.3927 28.8732 32.3429 28.8451C32.2566 28.7967 32.2417 28.8082 32.0338 29.0839C31.3344 30.0116 30.4381 30.7941 29.4518 31.3383C28.6941 31.7563 27.6695 32.1373 26.86 32.3022C26.0041 32.4764 24.7291 32.5245 23.8601 32.4154C21.7537 32.1509 19.8609 31.2032 18.4885 29.7257C17.82 29.006 17.2105 27.9276 16.9175 26.9457C16.0802 24.1399 17.1284 21.1982 19.633 19.3251C22.458 17.2124 26.4809 17.0026 29.5796 18.8064C30.5345 19.3623 31.4473 20.1805 32.0537 21.0242C32.138 21.1414 32.2241 21.2373 32.245 21.2373C32.3182 21.2373 39.295 17.6291 39.3161 17.5803C39.3423 17.5196 38.9756 16.9841 38.5232 16.4223C36.3451 13.7177 33.1625 11.7246 29.5588 10.8084C26.8771 10.1266 24.1051 10.0509 21.393 10.5854C15.3106 11.784 10.4685 15.9483 8.89458 21.3343C8.71906 21.9349 8.5702 22.645 8.47198 23.3502C8.36634 24.1087 8.36575 25.9267 8.4709 26.6862C8.87176 29.582 10.0108 31.9894 12.0664 34.2858C12.8976 35.2143 14.2835 36.3736 15.4144 37.0865C18.4923 39.0266 22.2954 39.9892 26.0175 39.7702ZM37.9955 27.0186C38.0056 27.2997 38.0218 27.4197 38.0486 27.4351C38.0767 27.4512 38.4654 27.4604 38.9122 27.4553L39.7246 27.4462L39.7358 26.6706C39.7426 26.182 39.7638 25.8771 39.7923 25.8465C39.8264 25.81 40.0549 25.7956 40.7184 25.7881L41.5993 25.7781L41.5993 24.2583L40.7055 24.2483C40.0543 24.2408 39.8029 24.2259 39.7792 24.1927C39.7613 24.1676 39.7464 23.8007 39.746 23.3772L39.7454 22.6073L38.8809 22.6174L38.0164 22.6274L37.9956 23.4244L37.9951 23.443C37.9937 23.7257 37.9871 23.9714 37.9784 24.0827L37.9748 24.2213L37.079 24.2399L36.1833 24.2584L36.172 25.0268L36.1608 25.7952L37.0678 25.8052L37.9748 25.8152L37.9781 26.0473C37.9903 26.1744 37.9955 26.386 37.9955 26.7117L37.9955 27.0186ZM44.9817 27.4404L44.9822 27.4408C44.9998 27.444 45.0224 27.4467 45.0507 27.449C45.1619 27.4556 45.3958 27.4589 45.674 27.4573C45.7252 27.4569 45.7797 27.4564 45.8376 27.4557L46.1081 27.4527L46.682 27.4458L46.6933 26.6506C46.7017 26.0711 46.7185 25.8475 46.7558 25.8264C46.784 25.8105 47.196 25.7972 47.6715 25.7969L48.536 25.7963L48.536 24.2409L47.6299 24.2309L46.7237 24.221L46.7125 23.4147L46.7013 22.6085L44.9547 22.6085L44.9435 23.4147L44.9323 24.221L44.0261 24.2309L43.12 24.2409L43.12 25.7963L43.9706 25.7963C44.4385 25.7963 44.851 25.8064 44.8872 25.8188C44.9445 25.8383 44.9531 25.9449 44.9531 26.6281C44.9531 27.0609 44.966 27.4264 44.9817 27.4404Z" transform="matrix(0.7071066 -0.7071066 0.7071066 0.7071066 0 35.35535)" id="cpp" fill="#1DAAA9" fill-rule="evenodd" stroke="none" />
</svg>