<?xml version="1.0" encoding="utf-8"?>
<svg width="71px" height="71px" viewBox="0 0 71 71" version="1.1" xmlns:xlink="http://www.w3.org/1999/xlink" xmlns="http://www.w3.org/2000/svg">
  <desc>Created with Lunacy</desc>
  <path d="M4.54428 44.1741L7.62939e-06 -1.52588e-05L50 -1.52588e-05L45.4557 44.1741L25 50L4.54428 44.1741ZM40.1432 14.2076L40.7682 8.92857L9.23177 8.92857L9.98698 14.2076L25.9896 14.2076L25.1432 14.5089L10.5469 19.721L11.0156 24.8884L11.0417 24.8772L11.0417 24.8884L32.6953 24.9442L32.2135 31.8192L25.0911 33.5379L18.2422 32.0536L17.8255 27.779L11.4583 27.779L12.2917 36.0268L25.1563 39.2857L37.9427 36.0826L39.6094 19.721L25.0911 19.721L25.1302 19.7098L40.1432 14.2076Z" transform="matrix(0.7071066 -0.7071066 0.7071066 0.7071066 0 35.35533)" id="css" fill="#4A2F8F" fill-rule="evenodd" stroke="none" />
</svg>