<?xml version="1.0" encoding="utf-8"?>
<svg width="71px" height="71px" viewBox="0 0 71 71" version="1.1" xmlns:xlink="http://www.w3.org/1999/xlink" xmlns="http://www.w3.org/2000/svg">
  <desc>Created with Lunacy</desc>
  <path d="M18.897 49.6609C11.5878 48.2834 4.48802 42.6088 1.2389 35.5472C-0.505062 31.757 -0.407853 30.4793 1.53066 31.7127C3.73948 33.118 4.03255 33.175 9.63737 33.2869C13.8737 33.3716 15.0562 33.3163 15.2973 33.0222C15.7071 32.5225 16.8083 28.6024 16.6224 28.3053C16.5413 28.1757 14.6444 28.0696 12.4072 28.0696C7.93303 28.0696 6.90175 27.8279 5.87525 26.5389C4.93325 25.3559 5.03118 23.0693 6.10291 21.2235C7.75058 18.3857 9.34678 17.7974 15.3993 17.7974L19.8408 17.7974L20.2876 16.2794C20.5333 15.4445 20.8127 14.3744 20.9084 13.9014L21.0557 13.1742C21.0039 13.1249 20.9398 13.0818 20.8621 13.0442L14.2282 13.129L7.37386 13.2165L5.69721 14.0494C4.77505 14.5075 3.22693 15.6139 2.25692 16.5081C0.838597 17.8155 0.458562 18.0445 0.315997 17.6775C-0.0461231 16.7453 2.23419 12.1435 4.49881 9.23631C7.97204 4.7776 13.6456 1.34216 19.195 0.337586C20.0495 0.182908 21.3868 0.0909081 22.8776 0.058547C24.3772 -0.0393534 25.9066 -0.0150528 27.4536 0.135811C28.6269 0.202203 29.6893 0.304659 30.4732 0.441634C37.9632 1.75044 45.0809 7.58077 48.2939 15.0392C48.761 16.1233 49.1041 17.3436 49.0564 17.7509C48.975 18.4462 48.8708 18.4966 47.3509 18.5748C46.7519 18.6056 46.3568 18.6046 46.024 18.7464C45.3287 19.0427 44.9058 19.9627 43.4631 23.1007C43.3711 23.3008 43.275 23.5098 43.1744 23.7283C40.6121 29.2939 40.1275 29.2096 40.1208 23.1972C40.1177 20.5387 40.0091 19.1905 39.7793 18.9634C39.406 18.5947 33.7411 18.4909 33.1956 18.8428C33.0217 18.9549 31.987 20.9207 30.8962 23.2111C28.918 27.3651 28.2474 28.2984 27.7766 27.553C27.6454 27.3452 27.4468 25.4087 27.3354 23.2498C27.224 21.0908 27.0033 19.1682 26.845 18.9773C26.6484 18.7402 25.6329 18.6303 23.6405 18.6303L20.7239 18.6303L20.7261 19.5326C20.7274 20.0288 21.0388 24.4849 21.4181 29.4349C21.91 35.852 22.2118 38.5 22.4698 38.6617C22.6689 38.7865 24.0453 38.8905 25.5284 38.8928C27.7472 38.8963 28.3023 38.8109 28.6602 38.4112C28.8994 38.144 29.9822 36.1701 31.0664 34.0247C32.1505 31.8794 33.2303 29.9661 33.4659 29.773C34.1717 29.1943 34.4952 30.2429 34.4979 33.118C34.4989 34.5405 34.5795 36.3551 34.6762 37.1505L34.852 38.5966L36.0874 38.7796C36.7669 38.8802 38.4025 38.8541 39.7221 38.7216L42.1213 38.4806L45.6797 31.8924C47.6368 28.2689 49.399 25.2433 49.5957 25.1687C49.7052 25.1272 49.785 25.1751 49.8411 25.3412C49.8586 25.3143 49.8701 25.2981 49.8755 25.2933C49.9779 25.2024 50.0088 25.4546 49.9868 25.9163C50.0131 26.2056 49.9994 26.6175 49.952 27.113C49.8844 32.8047 47.325 38.4739 42.8021 42.9346C39.1299 46.5563 34.9641 48.805 30.4732 49.5898C29.6002 49.7423 28.2448 49.8479 26.7475 49.9045C26.4097 49.9212 26.0637 49.9339 25.7138 49.9427C25.5906 50.0187 25.4665 50.017 25.3802 49.95C25.296 49.9515 25.2116 49.9528 25.1271 49.9539C24.9373 49.9664 24.7253 49.9678 24.5028 49.9577C24.2732 49.9576 24.0439 49.9558 23.8161 49.9524C21.79 49.944 19.892 49.8484 18.897 49.6609L18.897 49.6609Z" transform="matrix(0.7071066 -0.7071066 0.7071066 0.7071066 0 35.35535)" id="curtis-wright" fill="#D52429" stroke="none" />
</svg>