<?xml version="1.0" encoding="utf-8"?>
<svg width="71px" height="71px" viewBox="0 0 71 71" version="1.1" xmlns:xlink="http://www.w3.org/1999/xlink" xmlns="http://www.w3.org/2000/svg">
  <desc>Created with Lunacy</desc>
  <path d="M49.9999 11.6072L49.9999 7.14293C49.9999 3.20875 38.802 6.10352e-05 24.9999 6.10352e-05C11.1978 6.10352e-05 -6.10352e-05 3.20875 -6.10352e-05 7.14293L-6.10352e-05 11.6072C-6.10352e-05 15.5414 11.1978 18.7501 24.9999 18.7501C38.802 18.7501 49.9999 15.5414 49.9999 11.6072ZM50.0001 17.1874L50.0001 27.232C50.0001 31.1662 38.8022 34.3749 25.0001 34.3749C11.198 34.3749 0.00012207 31.1662 0.00012207 27.232L0.00012207 17.1874C5.37121 20.424 15.2019 21.9307 25.0001 21.9307C34.7983 21.9307 44.6289 20.424 50.0001 17.1874ZM50.0001 42.8568L50.0001 32.8121C44.6289 36.0488 34.7983 37.5555 25.0001 37.5555C15.2019 37.5555 5.37121 36.0488 0.00012207 32.8121L0.00012207 42.8568C0.00012207 46.7909 11.198 49.9996 25.0001 49.9996C38.8022 49.9996 50.0001 46.7909 50.0001 42.8568Z" transform="matrix(0.7071067 -0.7071067 0.7071067 0.7071067 0 35.35547)" id="database" fill="#1DAAA9" fill-rule="evenodd" stroke="none" />
</svg>