<?xml version="1.0" encoding="utf-8"?>
<svg width="71px" height="71px" viewBox="0 0 71 71" version="1.1" xmlns:xlink="http://www.w3.org/1999/xlink" xmlns="http://www.w3.org/2000/svg">
  <desc>Created with Lunacy</desc>
  <path d="M50 44.6428L50 5.35708C50 2.39841 47.6015 -6.10352e-05 44.6429 -6.10352e-05L5.35714 -6.10352e-05C2.39847 -6.10352e-05 0 2.39841 0 5.35708L0 44.6428C0 47.6015 2.39847 49.9999 5.35714 49.9999L44.6429 49.9999C47.6015 49.9999 50 47.6015 50 44.6428ZM24.6654 13.0928C24.6654 14.71 25.6006 15.6464 27.2167 15.6464C28.8618 15.6464 29.7982 14.71 29.7982 13.0928C29.7982 11.4756 28.864 10.6028 27.2189 10.6028C25.6029 10.6028 24.6654 11.4778 24.6654 13.0928ZM42.0903 29.088L42.8571 31.5846C41.6372 32.184 39.8515 32.723 38.2388 32.723C34.8638 32.723 33.5881 31.3625 33.5881 28.1572L33.5881 20.7275C33.5881 20.6339 33.5925 20.5693 33.5647 20.525C33.4798 20.3903 33.0956 20.444 31.3761 20.444L31.3761 17.9195C33.8671 17.636 34.8593 16.3882 35.1707 13.2967L37.8694 13.2967C37.8694 17.0105 37.8059 17.5372 37.9509 17.6028C37.9853 17.6184 38.0313 17.6081 38.0926 17.6081L42.0903 17.6081L42.0903 20.444L37.866 20.444L37.866 27.2208C37.866 27.2463 37.865 27.2792 37.8639 27.3184C37.8434 28.018 37.7643 30.7125 42.0903 29.088ZM16.6998 18.1917L22.2299 18.1917L22.2288 20.6002L19.6194 20.7989C20.1294 21.4518 20.6685 22.3592 20.6685 23.6638C20.6685 29.0947 14.2857 28.9284 12.3884 28.3993L11.4531 29.8982C18.8795 30.3513 22.0301 30.2007 22.0301 34.2933C22.0301 37.5545 19.1674 39.3971 14.2321 39.3971C9.09931 39.3971 7.14284 38.0969 7.14061 35.8569C7.14061 34.5801 7.70981 33.9016 8.70311 32.9641C7.76673 32.569 7.45534 31.8603 7.45534 31.0935C7.45534 30.0221 8.28458 29.2665 10.0357 27.6627C8.64619 26.9808 7.59708 25.5076 7.59708 23.4094C7.59708 17.6505 13.9096 17.4607 16.6998 18.1917ZM31.6429 30.451L30.192 30.2523C29.7657 30.1954 29.7378 30.1407 29.7378 29.6843L29.7378 17.9153L23.8673 17.9153L23.5559 20.211C25.3137 20.8305 25.4532 20.7535 25.4532 21.3461L25.4532 29.6876C25.4532 30.3148 25.4186 30.1988 23.5559 30.4543L23.5559 32.6932L31.6385 32.6932L31.6429 30.451ZM14.346 20.7141C10.7422 20.7141 10.5792 25.6773 14.2623 25.6773C17.8906 25.6773 17.8013 20.7141 14.346 20.7141ZM17.806 35.0651C17.806 33.968 16.6475 34.102 11.2268 33.7325C10.8574 34.1857 10.4913 34.6667 10.4902 35.2348C10.4902 37.304 17.806 37.2973 17.806 35.0651Z" transform="matrix(0.7071067 -0.7071067 0.7071067 0.7071067 0 35.35535)" id="git" fill="#FCCD3A" fill-rule="evenodd" stroke="none" />
</svg>