<?xml version="1.0" encoding="utf-8"?>
<svg width="71px" height="71px" viewBox="0 0 71 71" version="1.1" xmlns:xlink="http://www.w3.org/1999/xlink" xmlns="http://www.w3.org/2000/svg">
  <desc>Created with Lunacy</desc>
  <path d="M49.0568 22.7731L27.2321 0.942707C25.9741 -0.314236 23.9355 -0.314236 22.6775 0.942707L18.1395 5.47731L23.8895 11.2273C26.9096 10.2072 29.769 13.099 28.7321 16.1023L34.2745 21.6447C38.0948 20.3278 41.1026 25.1045 38.2332 27.9717C35.2768 30.9282 30.3973 27.6514 31.9832 23.8043L26.8103 18.638L26.8103 32.2374C29.6339 33.6369 29.2946 36.9081 27.8237 38.3757C26.3271 39.8714 23.9017 39.8714 22.4051 38.3757C20.4442 36.4115 21.1697 33.1403 23.6607 32.1257L23.6607 18.3981C21.3393 17.4483 20.9152 14.9673 21.5804 13.3757L15.9119 7.70052L0.943167 22.6715C-0.314389 23.9293 -0.314389 25.9684 0.943166 27.2262L22.7746 49.0565C24.0322 50.3134 26.0704 50.3134 27.3281 49.0565L49.0568 27.3278C50.3144 26.0699 50.3144 24.0309 49.0568 22.7731L49.0568 22.7731Z" transform="matrix(0.7071067 -0.7071067 0.7071067 0.7071067 0 35.35535)" id="git2" fill="#FCCD3A" stroke="none" />
</svg>