<?xml version="1.0" encoding="utf-8"?>
<svg width="71px" height="71px" viewBox="0 0 71 71" version="1.1" xmlns:xlink="http://www.w3.org/1999/xlink" xmlns="http://www.w3.org/2000/svg">
  <desc>Created with Lunacy</desc>
  <path d="M5.35714 0L44.6429 0C47.6004 0 50 2.39955 50 5.35714L50 44.6429C50 47.6004 47.6004 50 44.6429 50L5.35714 50C2.39955 50 0 47.6004 0 44.6429L0 5.35714C0 2.39955 2.39955 0 5.35714 0ZM29.7657 41.2834C31.1384 44.0066 33.9621 46.0825 38.3259 46.0825C42.779 46.0825 46.1049 43.7611 46.1049 39.5423C46.1049 35.6137 43.8616 33.8615 39.8661 32.1539L38.6942 31.6517C36.6741 30.77 35.8036 30.2008 35.8036 28.7945C35.8036 27.6562 36.6741 26.7856 38.0469 26.7856C39.3974 26.7856 40.2679 27.3548 41.0715 28.7945L44.7322 26.4508C43.192 23.7276 41.0491 22.6896 38.0581 22.6896C33.8728 22.6896 31.1831 25.3682 31.1831 28.895C31.1831 32.7231 33.4264 34.5423 36.8192 35.982L37.9911 36.4843C40.1451 37.4329 41.4174 38.0021 41.4174 39.6093C41.4174 40.9597 40.1674 41.9307 38.2255 41.9307C35.9152 41.9307 34.5982 40.7142 33.5938 39.0736L29.7657 41.2834ZM27.2096 38.9956C27.2096 43.8617 24.3525 46.0827 20.1896 46.0827C16.4284 46.0827 14.2521 44.1407 13.136 41.7858L16.9641 39.4756C17.7007 40.7814 18.3704 41.8863 19.9887 41.8863C21.5288 41.8863 22.511 41.2836 22.511 38.9287L22.511 22.9577L27.2097 22.9577L27.2096 38.9956Z" transform="matrix(0.7071067 -0.7071067 0.7071067 0.7071067 0 35.35535)" id="javascript" fill="#D52429" fill-rule="evenodd" stroke="none" />
</svg>