<?xml version="1.0" encoding="utf-8"?>
<svg width="83px" height="74px" viewBox="0 0 83 74" version="1.1" xmlns:xlink="http://www.w3.org/1999/xlink" xmlns="http://www.w3.org/2000/svg">
  <desc>Created with Lunacy</desc>
  <path d="M16.9628 25.5409C17.8267 27.3966 20.1405 30.4129 21.9636 32.0599C22.6471 32.6775 23.2816 33.1075 23.3736 33.0155C23.4655 32.9235 22.847 31.7909 21.9991 30.4986C21.1512 29.2063 20.2479 27.5538 19.9917 26.8265C18.8216 23.5047 19.8293 20.6025 23.2578 17.4198C29.0112 12.0787 31.2189 9.67558 32.1967 7.68952C33.2684 5.51251 33.6796 2.87182 33.2196 1.11994C32.7594 -0.633067 32.3144 -0.299163 32.1545 1.91913C31.8771 5.76876 30.0043 8.31416 23.7571 13.3327C16.4511 19.2017 15.1229 21.5884 16.9628 25.5409ZM27.7107 29.5916C29.3848 31.8091 29.8158 33.3034 29.2497 34.9274C28.8282 36.1365 29.3826 36.1805 30.4697 35.0241C31.867 33.5377 32.5193 32.1566 32.5204 30.6818C32.5214 29.4943 32.2749 28.9156 30.8679 26.8013C29.9584 25.4347 29.1248 23.8395 29.0154 23.2566C28.5363 20.7027 30.3859 18.1155 34.8625 15.0774C38.1986 12.8134 37.4125 12.5981 33.306 14.6511C25.1018 18.7528 23.2537 23.6877 27.7107 29.5916ZM40.6818 47.2248C40.6851 47.1328 41.7107 46.3011 42.9637 45.3745C45.7834 43.2892 47.0286 41.4787 47.0286 39.464C47.0287 37.2762 45.3044 35.5535 43.1147 35.5535C42.6077 35.5535 42.193 35.432 42.193 35.2836C42.193 34.4351 45.4852 34.4309 47.2333 35.2767C48.8505 36.0596 49.7852 37.3337 49.9745 39.0135C50.2506 41.4626 48.2546 44.052 44.6398 45.9342C42.7675 46.9091 40.6835 47.5888 40.6818 47.2252L40.6818 47.2248ZM11.9701 40.9667C7.56765 40.5456 5.14125 39.6972 5.51962 38.7112C5.9233 37.6592 12.1405 35.3899 14.0149 35.6104C14.7421 35.6959 14.5897 35.8344 12.746 36.7633C11.5936 37.344 10.6567 37.9551 10.664 38.1214C10.736 39.7645 23.7248 39.9266 34.474 38.4184C36.1295 38.1861 37.5371 38.0492 37.6021 38.1142C37.6671 38.1791 37.6299 38.3783 37.5196 38.5568C36.3168 40.5029 21.6176 41.8894 11.9701 40.9667ZM11.0464 44.954C10.3135 46.3234 12.7231 47.6197 17.1662 48.2463C20.2943 48.6875 28.0183 48.3715 31.7661 47.6491C36.8539 46.6683 36.9125 46.6281 35.015 45.4158L33.8817 44.6916L30.1038 45.2779C27.0378 45.7537 25.3293 45.8358 21.0369 45.7136C15.2305 45.5484 13.9885 45.3301 13.8296 44.4473C13.7719 44.1268 13.6175 43.751 13.4865 43.6121C13.1534 43.2591 11.453 44.1941 11.0464 44.954ZM13.4691 51.52C11.7003 52.9523 14.3537 54.9375 19.0003 55.6583C23.4594 56.3501 28.0585 56.0543 32.4971 54.7903C35.3286 53.9839 35.5452 53.4692 33.4631 52.494C32.0082 51.8125 31.8907 51.8041 29.4473 52.208C24.5898 53.0109 15.9061 52.5109 15.4813 51.4039C15.2499 50.8007 14.2889 50.8561 13.4691 51.52ZM7.89007 61.6763C10.2172 61.9377 12.5293 62.1985 13.028 62.2558C13.5266 62.3131 17.2667 62.3791 21.3393 62.4025C32.7324 62.468 40.4465 61.3534 45.2533 58.9471C46.5231 58.3115 47.0288 57.7528 47.0288 56.9857C47.0288 56.5211 46.199 56.6764 46.0069 57.1769C44.7143 60.5453 13.5818 61.9122 5.68275 58.9474C3.83327 58.2532 4.10596 57.6557 6.76629 56.573C9.56546 55.4339 9.01716 54.9722 5.8325 55.7867C3.17695 56.4658 1.52201 57.2549 0.535109 58.3125C-1.06585 60.0281 0.795068 60.8792 7.89007 61.6763ZM19.0722 64.4878C10.7829 64.3154 9.82581 64.5625 15.7476 65.3465C18.3997 65.6976 25.0812 65.7474 30.6465 65.5655C30.6213 65.8291 30.8113 66.0252 31.1694 66.0477C31.5785 66.0754 31.8166 65.8534 31.7835 65.5244C34.4686 65.4179 36.7878 65.255 38.1038 65.0443C43.9897 64.1019 47.4313 62.9427 48.8178 61.4356C49.8125 60.3543 49.4339 60.133 47.8572 60.8741C42.3703 63.4533 31.9885 64.7566 19.0722 64.4878Z" transform="matrix(0.7071066 -0.7071066 0.7071066 0.7071066 0 35.35522)" id="Java" fill="#1DAAA9" fill-rule="evenodd" stroke="none" />
</svg>