<?xml version="1.0" encoding="utf-8"?>
<svg width="71px" height="71px" viewBox="0 0 71 71" version="1.1" xmlns:xlink="http://www.w3.org/1999/xlink" xmlns="http://www.w3.org/2000/svg">
  <desc>Created with Lunacy</desc>
  <path d="M27.441 43.8515C20.6542 31.0549 13.3903 17.3587 23.8664 0.792221C24.5305 -0.272206 25.8488 -0.252675 26.3664 0.782456C26.9426 1.925 49.8425 47.8809 49.8425 47.8809C50.3308 48.8477 49.6277 50 48.5339 50L31.5225 50C30.9659 50 30.4581 49.6777 30.214 49.1797C29.3323 47.4177 28.3913 45.6434 27.441 43.8515ZM12.4405 23.3594C12.9386 22.3341 14.1104 22.2853 14.8623 23.086C21.3368 29.9999 23.5634 41.5719 19.8623 49.1694C19.6279 49.6772 19.1201 49.9994 18.5537 49.9897L1.46416 49.9897C0.389962 49.9897 -0.332681 48.8471 0.155592 47.8706L12.4405 23.3594Z" transform="matrix(0.7071067 -0.7071067 0.7071067 0.7071067 0 35.35556)" id="jira" fill="#1DAAA9" fill-rule="evenodd" stroke="none" />
</svg>