<?xml version="1.0" encoding="utf-8"?>
<svg width="71px" height="71px" viewBox="0 0 71 71" version="1.1" xmlns:xlink="http://www.w3.org/1999/xlink" xmlns="http://www.w3.org/2000/svg">
  <desc>Created with Lunacy</desc>
  <path d="M45 4.6875C45 2.10938 43.3125 0 41.25 0L8.74998 0C6.68748 0 4.99998 2.10938 4.99998 4.6875L4.99998 37.5L45 37.5L45 4.6875ZM9.99997 31.2499L40 31.2499L40 6.24988L9.99997 6.24988L9.99997 31.2499ZM21.6923 25.5516C21.204 26.162 20.4126 26.162 19.9243 25.5516L15.3657 19.8544C14.8774 19.244 14.8774 18.2548 15.3657 17.6444L19.9235 11.9471C20.4118 11.3368 21.2032 11.3368 21.6915 11.9471L22.5751 13.0516C23.0633 13.662 23.0633 14.6512 22.5751 15.2616L19.7852 18.7499L22.5758 22.2372C23.0641 22.8475 23.0641 23.8368 22.5758 24.4471L21.6923 25.5516ZM27.425 24.448L28.3086 25.5525C28.7969 26.1628 29.5883 26.1628 30.0766 25.5525L34.6344 19.8552C35.1227 19.2449 35.1227 18.2556 34.6344 17.6453L30.0766 11.948C29.5883 11.3376 28.7969 11.3376 28.3086 11.948L27.425 13.0525C26.9367 13.6628 26.9367 14.6521 27.425 15.2625L30.2148 18.7498L27.425 22.238C26.9367 22.8484 26.9367 23.8376 27.425 24.448ZM29.8078 40.6249L48.75 40.6249C49.4375 40.6249 50 41.328 50 42.1874L50 43.7499C50 47.1874 47.75 49.9999 45 49.9999L4.99996 49.9999C2.24996 49.9999 -4.19617e-05 47.1874 -4.19617e-05 43.7499L-4.19617e-05 42.1874C-4.19617e-05 41.328 0.562458 40.6249 1.24996 40.6249L19.9398 40.6249C19.9203 42.0438 21.0398 43.7499 22.5 43.7499L27.25 43.7499C28.6586 43.7499 29.75 42.5594 29.8078 40.6249Z" transform="matrix(0.7071067 -0.7071067 0.7071067 0.7071067 0 35.35535)" id="laptop" fill="#FCCD3A" fill-rule="evenodd" stroke="none" />
</svg>