<?xml version="1.0" encoding="utf-8"?>
<svg width="71px" height="71px" viewBox="0 0 71 71" version="1.1" xmlns:xlink="http://www.w3.org/1999/xlink" xmlns="http://www.w3.org/2000/svg">
  <desc>Created with Lunacy</desc>
  <path d="M40.6249 45.3125L40.6249 4.6875C40.6249 2.09863 38.5263 0 35.9374 0L14.0625 0C11.4736 0 9.375 2.09863 9.375 4.6875L9.375 45.3125C9.375 47.9014 11.4736 50 14.0625 50L35.9374 50C38.5263 50 40.6249 47.9014 40.6249 45.3125ZM49.9997 10.3514L49.9997 11.5233C49.9997 11.8469 49.7374 12.1093 49.4138 12.1093L47.656 12.1093L47.656 12.6952C47.656 13.0188 47.3937 13.2811 47.0701 13.2811L42.9685 13.2811L42.9685 8.59363L47.0701 8.59363C47.3937 8.59363 47.656 8.85596 47.656 9.17957L47.656 9.7655L49.4138 9.7655C49.7374 9.7655 49.9997 10.0278 49.9997 10.3514ZM7.03124 8.59399L2.92968 8.59399C2.60608 8.59399 2.34375 8.85633 2.34375 9.17993L2.34375 9.76587L0.585936 9.76587C0.262333 9.76587 0 10.0282 0 10.3518L0 11.5237C0 11.8473 0.262333 12.1096 0.585936 12.1096L2.34375 12.1096L2.34375 12.6956C2.34375 13.0192 2.60608 13.2815 2.92968 13.2815L7.03124 13.2815L7.03124 8.59399ZM2.92977 17.9688L7.03133 17.9688L7.03133 22.6563L2.92977 22.6563C2.60617 22.6563 2.34384 22.3939 2.34384 22.0703L2.34384 21.4844L0.586028 21.4844C0.262424 21.4844 9.15527e-05 21.222 9.15527e-05 20.8984L9.15527e-05 19.7266C9.15993e-05 19.403 0.262424 19.1406 0.586028 19.1406L2.34384 19.1406L2.34384 18.5547C2.34384 18.2311 2.60617 17.9688 2.92977 17.9688ZM49.9998 20.8988L49.9998 19.7269C49.9998 19.4033 49.7375 19.141 49.4139 19.141L47.6561 19.141L47.6561 18.5551C47.6561 18.2314 47.3937 17.9691 47.0701 17.9691L42.9686 17.9691L42.9686 22.6566L47.0701 22.6566C47.3937 22.6566 47.6561 22.3943 47.6561 22.0707L47.6561 21.4847L49.4139 21.4847C49.7375 21.4847 49.9998 21.2224 49.9998 20.8988ZM7.03142 27.3439L2.92986 27.3439C2.60626 27.3439 2.34393 27.6062 2.34393 27.9298L2.34393 28.5157L0.586119 28.5157C0.262516 28.5157 0.000183152 28.7781 0.000183105 29.1017L0.000183105 30.2736C0.000183105 30.5972 0.262516 30.8595 0.586119 30.8595L2.34393 30.8595L2.34393 31.4454C2.34393 31.769 2.60626 32.0314 2.92986 32.0314L7.03142 32.0314L7.03142 27.3439ZM49.9997 29.1017L49.9997 30.2736C49.9997 30.5972 49.7374 30.8595 49.4138 30.8595L47.656 30.8595L47.656 31.4454C47.656 31.769 47.3937 32.0314 47.0701 32.0314L42.9685 32.0314L42.9685 27.3439L47.0701 27.3439C47.3937 27.3439 47.656 27.6062 47.656 27.9298L47.656 28.5157L49.4138 28.5157C49.7374 28.5157 49.9997 28.7781 49.9997 29.1017ZM2.92993 36.7185L7.03148 36.7185L7.03148 41.406L2.92993 41.406C2.60632 41.406 2.34399 41.1437 2.34399 40.8201L2.34399 40.2341L0.586181 40.2341C0.262577 40.2341 0.000244141 39.9718 0.000244141 39.6482L0.000244141 38.4763C0.000244187 38.1527 0.262577 37.8904 0.586181 37.8904L2.34399 37.8904L2.34399 37.3044C2.34399 36.9808 2.60632 36.7185 2.92993 36.7185ZM49.9998 39.6486L49.9998 38.4767C49.9998 38.1531 49.7374 37.8907 49.4138 37.8907L47.656 37.8907L47.656 37.3048C47.656 36.9812 47.3937 36.7189 47.0701 36.7189L42.9685 36.7189L42.9685 41.4064L47.0701 41.4064C47.3937 41.4064 47.656 41.144 47.656 40.8204L47.656 40.2345L49.4138 40.2345C49.7374 40.2345 49.9998 39.9722 49.9998 39.6486Z" transform="matrix(0.7071067 -0.7071067 0.7071067 0.7071067 0 35.35519)" id="microchip" fill="#4A2F8F" fill-rule="evenodd" stroke="none" />
</svg>