<?xml version="1.0" encoding="utf-8"?>
<svg width="71px" height="71px" viewBox="0 0 71 71" version="1.1" xmlns:xlink="http://www.w3.org/1999/xlink" xmlns="http://www.w3.org/2000/svg">
  <desc>Created with Lunacy</desc>
  <path d="M18.7272 24.1185L30.6465 24.1185C33.9611 24.1185 36.6061 21.3841 36.6061 18.0582L36.6061 6.68542C36.6061 3.44881 33.883 1.02693 30.6465 0.480056C26.6511 -0.178427 22.3097 -0.144945 18.7272 0.491216C13.6827 1.38407 12.7676 3.24792 12.7676 6.69658L12.7676 11.239L24.698 11.239L24.698 12.7569L8.29225 12.7569C4.82137 12.7569 1.78575 14.8439 0.837119 18.806C-0.256597 23.3484 -0.301239 26.1832 0.837119 30.9265C1.68531 34.4533 3.70534 36.9756 7.17621 36.9756L11.2721 36.9756L11.2721 31.5292C11.2721 27.5895 14.676 24.1185 18.7272 24.1185ZM15.7361 5.93768C15.7361 7.18768 16.7405 8.20331 17.9793 8.20331C19.2181 8.20331 20.2226 7.18768 20.2226 5.93768C20.2226 4.68768 19.207 3.66089 17.9793 3.66089C16.7405 3.66089 15.7473 4.67651 15.7361 5.93768ZM49.0833 18.8061C48.2239 15.3574 46.5945 12.757 43.1236 12.757L38.6483 12.757L38.6483 18.0471C38.6483 22.1543 35.1663 25.6141 31.1932 25.6141L19.2739 25.6141C16.0151 25.6141 13.3143 28.4043 13.3143 31.6744L13.3143 43.036C13.3143 46.2726 16.1267 48.1699 19.2739 49.0963C23.0461 50.2012 26.6732 50.4021 31.1932 49.0963C34.1953 48.2257 37.1528 46.4735 37.1528 43.036L37.1528 38.4936L25.2447 38.4936L25.2447 36.9757L43.1236 36.9757C46.5945 36.9757 47.878 34.5539 49.0833 30.9266C50.3332 27.1878 50.2774 23.594 49.0833 18.8061ZM34.1842 43.7837C34.1842 42.5337 33.1798 41.5181 31.941 41.5181C30.7134 41.5181 29.7089 42.5225 29.6978 43.7837C29.6978 45.0337 30.7134 46.0605 31.941 46.0605C33.1798 46.0605 34.1842 45.0448 34.1842 43.7837Z" transform="matrix(0.7071067 -0.7071067 0.7071067 0.7071067 0 35.35529)" id="python" fill="#1DAAA9" fill-rule="evenodd" stroke="none" />
</svg>