<?xml version="1.0" encoding="utf-8"?>
<svg width="67px" height="67px" viewBox="0 0 67 67" version="1.1" xmlns:xlink="http://www.w3.org/1999/xlink" xmlns="http://www.w3.org/2000/svg">
  <desc>Created with Lunacy</desc>
  <path d="M39.2578 13.6804C39.7852 13.8366 40.3125 14.0026 40.8398 14.1784C46.1523 16.0046 50 18.8757 50 21.8347C50 24.9304 45.918 27.9479 40.2832 29.8132C39.9805 29.9108 39.6777 30.0085 39.3652 30.0964C39.4727 30.5456 39.5703 30.985 39.6582 31.4147C40.7715 37.0397 39.9121 41.6589 37.2754 43.1823C34.7266 44.6569 30.5957 43.2018 26.416 39.6081C25.9668 39.2175 25.5176 38.8171 25.0879 38.3972C24.7461 38.7292 24.4043 39.0417 24.0625 39.3444C19.7461 43.1237 15.3125 44.6862 12.6758 43.1628C10.1172 41.6882 9.31641 37.3913 10.3418 31.9714C10.459 31.3757 10.5859 30.7995 10.7324 30.2136C10.2832 30.0866 9.84375 29.9401 9.4043 29.7936C3.98438 27.9382 0 24.8815 0 21.8347C0 18.8854 3.74023 16.0339 8.95508 14.2272C9.53125 14.0222 10.1465 13.8268 10.7715 13.6511C10.6348 13.1042 10.5176 12.5671 10.4102 12.0202C9.33594 6.51239 10.0977 2.10809 12.6562 0.623718C15.3223 -0.929016 19.7754 0.73114 24.2187 4.67645C24.4922 4.92059 24.7656 5.1745 25.0293 5.42841C25.4199 5.04755 25.8301 4.66669 26.25 4.30536C30.4883 0.613952 34.6777 -0.919251 37.2461 0.555359C39.9121 2.09833 40.7031 6.77606 39.502 12.5964C39.4238 12.9577 39.3457 13.319 39.2578 13.6804ZM27.6268 5.88741C31.2596 2.72335 34.6483 1.48312 36.1912 2.37179C37.8416 3.31905 38.4764 7.14718 37.4412 12.1765C37.3729 12.5085 37.3045 12.8308 37.2166 13.153C35.0487 12.6648 32.8514 12.3132 30.6444 12.1179C29.3748 10.3015 27.9881 8.5632 26.4842 6.93234C26.8651 6.57101 27.2362 6.22921 27.6268 5.88741ZM22.8124 6.24848C18.9745 2.85004 15.3319 1.48285 13.6913 2.43989C12.1483 3.32856 11.5429 6.89301 12.4608 11.6196C12.5683 12.1274 12.6757 12.6352 12.8026 13.1332C14.9706 12.6547 17.1581 12.3129 19.3651 12.1176C20.6444 10.3012 22.0409 8.56293 23.5546 6.93207C23.3007 6.6977 23.0565 6.46332 22.8124 6.24848ZM25.0195 8.42645C26.0449 9.53973 27.0117 10.7116 27.9101 11.9225C25.9765 11.8347 24.0331 11.8347 22.0995 11.9225C23.0566 10.6628 24.0429 9.49091 25.0195 8.42645ZM18.1346 17.9184C17.3925 19.2172 16.6893 20.5356 16.0448 21.8832C16.6991 23.2309 17.3925 24.5493 18.1444 25.8481C18.8964 27.1469 19.6971 28.4164 20.5468 29.6567C21.9823 29.7446 23.4667 29.7934 24.9999 29.7934C26.5331 29.7934 28.0468 29.7446 29.5018 29.6371C30.3319 28.3871 31.1229 27.1274 31.8651 25.8286C32.6171 24.52 33.3202 23.1918 33.9745 21.8442C33.3104 20.5063 32.6073 19.1879 31.8554 17.8989Q30.7274 15.9653 29.4823 14.1196C28.0272 14.0121 26.5233 13.9536 24.9999 13.9536C23.4764 13.9536 21.9823 14.0121 20.5175 14.1196C19.6776 15.3598 18.8768 16.6196 18.1346 17.9184ZM13.369 15.1548C14.7752 14.8423 16.2694 14.5884 17.8221 14.3931C17.3045 15.2037 16.7967 16.0338 16.3182 16.8736C15.8397 17.7037 15.3709 18.5533 14.9315 19.4127C14.3163 17.9576 13.7987 16.5318 13.369 15.1548ZM33.6719 16.8542C34.1602 17.6941 34.6289 18.5535 35.0879 19.4128C35.6836 18.0261 36.211 16.6199 36.6602 15.1746C35.2539 14.8523 33.75 14.5886 32.1778 14.3933Q32.9541 15.6091 33.6719 16.8542ZM11.2988 28.1823C10.8886 28.0651 10.4883 27.9382 10.0879 27.8015C8.00778 27.1472 5.6445 26.112 3.93552 24.7546C2.94919 24.071 2.28513 23.0163 2.09958 21.8347C2.09958 20.0475 5.18552 17.7624 9.63864 16.2097C10.1953 16.0143 10.7617 15.8386 11.3281 15.6725C11.9922 17.7917 12.7929 19.8718 13.7207 21.8835C12.7832 23.9245 11.9726 26.0339 11.2988 28.1823ZM39.6191 27.8112C39.3457 27.8991 39.0723 27.987 38.7891 28.0651C38.1055 25.9362 37.2656 23.8561 36.2988 21.8347C37.2363 19.8425 38.0273 17.7917 38.6914 15.6921C39.1992 15.8386 39.6875 15.9948 40.1563 16.1511C44.707 17.7136 47.9004 20.0378 47.9004 21.8151C47.9004 23.7292 44.4922 26.1999 39.6191 27.8112ZM29.4724 21.8734C29.4724 24.3441 27.4705 26.3461 24.9998 26.3461C22.5291 26.3461 20.5271 24.3441 20.5271 21.8734C20.5271 19.4027 22.5291 17.4008 24.9998 17.4008C27.4705 17.4008 29.4724 19.4027 29.4724 21.8734ZM33.6815 26.8833C34.1796 26.0239 34.6483 25.1548 35.1073 24.2759C35.7323 25.6919 36.2792 27.1274 36.7577 28.602C35.244 28.9438 33.7108 29.2075 32.1679 29.3833C32.6952 28.563 33.1933 27.7231 33.6815 26.8833ZM17.8709 29.432C17.3338 28.6019 16.826 27.7523 16.328 26.9027C15.8397 26.0629 15.3807 25.2133 14.9315 24.3539C14.3065 25.8383 13.7694 27.2933 13.3397 28.6996C14.8338 29.0218 16.3475 29.266 17.8709 29.432ZM36.2303 41.3655C37.1678 40.6136 37.7537 39.5003 37.8416 38.3089C38.1541 36.1409 38.076 33.9437 37.5974 31.8343C37.5193 31.4437 37.4314 31.0433 37.3338 30.6429C35.1365 31.1409 32.9099 31.4827 30.6736 31.6683C29.4236 33.5042 28.0467 35.2523 26.5525 36.9026C26.9724 37.2933 27.3826 37.6741 27.7928 38.0257C31.367 41.0921 34.6775 42.264 36.2303 41.3655ZM17.1776 41.1998C19.2088 40.3991 21.0741 39.2272 22.6854 37.7526C22.9979 37.4791 23.3104 37.1862 23.6229 36.8834C22.1092 35.2428 20.6932 33.4948 19.4042 31.6686C17.1678 31.5026 14.9608 31.1803 12.7733 30.7115C12.6366 31.2487 12.5194 31.7955 12.412 32.3424C11.5331 36.9811 12.1776 40.4283 13.7303 41.3268C14.8436 41.7662 16.0936 41.7174 17.1776 41.1998ZM25.078 35.3795C24.0819 34.3053 23.0858 33.1139 22.119 31.8346C23.0565 31.8737 24.0233 31.8932 24.9999 31.8932C26.0058 31.8932 26.9921 31.8737 27.9687 31.8248C27.0702 33.0651 26.1034 34.2467 25.078 35.3795Z" transform="matrix(0.7071067 -0.7071067 0.7071067 0.7071067 0 35.35535)" id="react" fill="#FCCD3A" fill-rule="evenodd" stroke="none" />
</svg>