<?xml version="1.0" encoding="utf-8"?>
<svg width="67px" height="67px" viewBox="0 0 67 67" version="1.1" xmlns:xlink="http://www.w3.org/1999/xlink" xmlns="http://www.w3.org/2000/svg">
  <desc>Created with Lunacy</desc>
  <path d="M3.12499 12.5L46.8749 12.5C48.6007 12.5 49.9999 11.1009 49.9999 9.375L49.9999 3.125C49.9999 1.39912 48.6007 0 46.8749 0L3.12499 0C1.39912 0 0 1.39912 0 3.125L0 9.375C0 11.1009 1.39912 12.5 3.12499 12.5ZM33.5938 6.24927C33.5938 4.95483 34.6432 3.90552 35.9376 3.90552C37.232 3.90552 38.2813 4.95483 38.2813 6.24927C38.2813 7.5437 37.232 8.59302 35.9376 8.59302C34.6432 8.59302 33.5938 7.5437 33.5938 6.24927ZM42.1874 3.90607C40.8929 3.90607 39.8436 4.95538 39.8436 6.24982C39.8436 7.54425 40.8929 8.59357 42.1874 8.59357C43.4818 8.59357 44.5311 7.54425 44.5311 6.24982C44.5311 4.95538 43.4818 3.90607 42.1874 3.90607ZM46.8752 28.1241L3.12536 28.1241C1.39948 28.1241 0.000366211 26.725 0.000366211 24.9991L0.000366211 18.7491C0.000366211 17.0232 1.39948 15.6241 3.12536 15.6241L46.8752 15.6241C48.6011 15.6241 50.0002 17.0232 50.0002 18.7491L50.0002 24.9991C50.0002 26.725 48.6011 28.1241 46.8752 28.1241ZM35.9375 19.5311C34.643 19.5311 33.5937 20.5804 33.5937 21.8748C33.5937 23.1693 34.643 24.2186 35.9375 24.2186C37.2319 24.2186 38.2812 23.1693 38.2812 21.8748C38.2812 20.5804 37.2319 19.5311 35.9375 19.5311ZM39.8436 21.8749C39.8436 20.5804 40.8929 19.5311 42.1874 19.5311C43.4818 19.5311 44.5311 20.5804 44.5311 21.8749C44.5311 23.1693 43.4818 24.2186 42.1874 24.2186C40.8929 24.2186 39.8436 23.1693 39.8436 21.8749ZM3.12499 43.7499L46.8749 43.7499C48.6007 43.7499 49.9998 42.3508 49.9998 40.6249L49.9998 34.3749C49.9998 32.649 48.6007 31.2499 46.8749 31.2499L3.12499 31.2499C1.39912 31.2499 0 32.649 0 34.3749L0 40.6249C0 42.3508 1.39912 43.7499 3.12499 43.7499ZM33.5938 37.4996C33.5938 36.2051 34.6431 35.1558 35.9375 35.1558C37.2319 35.1558 38.2812 36.2051 38.2812 37.4996C38.2812 38.794 37.2319 39.8433 35.9375 39.8433C34.6431 39.8433 33.5938 38.794 33.5938 37.4996ZM42.1875 35.1559C40.893 35.1559 39.8437 36.2053 39.8437 37.4997C39.8437 38.7941 40.893 39.8434 42.1875 39.8434C43.4819 39.8434 44.5312 38.7941 44.5312 37.4997C44.5312 36.2053 43.4819 35.1559 42.1875 35.1559Z" transform="matrix(0.7071067 -0.7071067 0.7071067 0.7071067 0 35.35547)" id="server" fill="#4A2F8F" fill-rule="evenodd" stroke="none" />
</svg>