<?xml version="1.0" encoding="utf-8"?>
<svg width="68px" height="68px" viewBox="0 0 68 68" version="1.1" xmlns:xlink="http://www.w3.org/1999/xlink" xmlns="http://www.w3.org/2000/svg">
  <desc>Created with Lunacy</desc>
  <path d="M4.97177 43.7093L20.1548 23.9387C20.887 22.9851 20.887 21.4392 20.1548 20.4858L4.97177 0.715142C4.23958 -0.238381 3.05239 -0.238381 2.32013 0.715142L0.549273 3.02108C-0.181741 3.97297 -0.183147 5.51572 0.546148 6.46985L12.579 22.2122L0.54607 37.9546C-0.183225 38.9088 -0.181819 40.4515 0.549195 41.4034L2.32013 43.7093C3.05232 44.6629 4.2395 44.6629 4.97177 43.7093ZM49.9999 39.3029L49.9999 42.5583C49.9999 43.9067 49.1604 44.9998 48.1249 44.9998L24.3749 44.9998C23.3394 44.9998 22.4999 43.9067 22.4999 42.5583L22.4999 39.3029C22.4999 37.9544 23.3394 36.8613 24.3749 36.8613L48.1249 36.8613C49.1604 36.8613 49.9999 37.9544 49.9999 39.3029Z" transform="matrix(0.7071067 -0.7071067 0.7071067 0.7071067 0 35.35522)" id="terminal" fill="#FC4850" fill-rule="evenodd" stroke="none" />
</svg>