<?xml version="1.0" encoding="utf-8"?>
<svg width="71px" height="71px" viewBox="0 0 71 71" version="1.1" xmlns:xlink="http://www.w3.org/1999/xlink" xmlns="http://www.w3.org/2000/svg">
  <desc>Created with Lunacy</desc>
  <path d="M24.2895 48.7756C24.1195 48.455 23.7666 47.759 23.5052 47.2289C23.2439 46.6988 21.1156 42.4404 18.7757 37.7659C16.4313 33.0823 14.5869 29.1442 14.6673 28.9937C14.7521 28.8349 14.7206 28.7869 14.5919 28.8788C14.4645 28.9699 14.062 28.3977 13.6433 27.5305C13.2433 26.702 12.1278 24.4518 11.1644 22.5301C10.201 20.6084 8.13972 16.488 6.58368 13.3735C5.02763 10.259 2.90973 6.03012 1.87725 3.97591L-7.62939e-06 0.240967L8.36422 0.120484C12.9645 0.0541829 16.7409 0 16.7562 0C16.9548 0 20.7717 8.15626 20.6658 8.35441C20.5845 8.50646 20.611 8.56309 20.7252 8.48148C21.0028 8.28304 23.3672 13.0391 23.1722 13.4039C23.0824 13.5718 23.1089 13.6252 23.2368 13.5339C23.3634 13.4433 25.2982 17.0652 27.8832 22.2316C30.3195 27.1006 32.4807 31.4107 32.6859 31.8097L33.059 32.5351L31.4867 35.6651C30.622 37.3866 29.7374 39.083 29.5209 39.4348C29.3045 39.7865 29.1274 40.1362 29.1274 40.2117C29.1274 40.2873 28.2517 42.06 27.1814 44.151C26.1111 46.2421 25.0922 48.2692 24.917 48.6557L24.5986 49.3584L24.2895 48.7756ZM32.8063 20.6424C34.1437 23.3373 35.4338 25.9479 35.6731 26.4438C35.9125 26.9397 36.1616 27.3465 36.2266 27.3474C36.3412 27.3493 37.2355 25.5861 42.9472 14.0964C44.4295 11.1145 45.8181 8.38691 46.0329 8.03511C46.2477 7.68333 46.4234 7.34495 46.4234 7.28321C46.4234 7.17513 48.7332 2.51533 49.5857 0.903644L50 0.120514L33.5432 0.120514L31.0572 5.1205C29.6899 7.87051 28.4541 10.3374 28.3109 10.6024C28.0839 11.023 28.1905 11.3667 29.1476 13.3006C29.7509 14.5196 30.3358 15.4516 30.4475 15.3718C30.5592 15.292 30.5885 15.3428 30.5126 15.4847C30.4368 15.6266 31.469 17.9476 32.8063 20.6424ZM32.1749 48.5542C31.8769 49.1506 31.6322 49.7198 31.6306 49.8193C31.6292 49.9187 33.7904 50 36.4332 50L41.2383 50L40.3404 48.1212C39.8466 47.0879 38.7861 44.8677 37.9838 43.1874C37.1816 41.5072 36.4477 40.1596 36.353 40.1928C36.2584 40.226 35.8747 40.901 35.5004 41.6928C34.6505 43.491 32.8923 47.1187 32.1749 48.5542Z" transform="matrix(0.7071067 -0.7071067 0.7071067 0.7071067 0 35.35532)" id="vxworks" fill="#FC4850" fill-rule="evenodd" stroke="none" />
</svg>