<?xml version="1.0" encoding="utf-8"?>
<svg width="368px" height="116px" viewBox="0 0 368 116" version="1.1" xmlns:xlink="http://www.w3.org/1999/xlink" xmlns="http://www.w3.org/2000/svg">
  <desc>Created with Lunacy</desc>
  <g id="Logo" transform="translate(0.5 0.5)">
    <path d="M78.4253 60.4822L78.4253 7.96268C73.6733 5.45264 68.2571 4.03315 62.5137 4.03315C43.6162 4.03315 28.232 19.4174 28.232 38.3149C28.232 47.0034 33.4388 53.9433 38.4566 60.6547C43.0175 66.7517 47.7123 73.0219 48.4371 80.5368L60.4971 80.5368L60.4971 74.6131C60.4971 73.5024 61.3951 72.5966 62.5137 72.5966C63.6322 72.5966 64.5302 73.5024 64.5302 74.6131L64.5302 80.5368L76.7084 80.5368C77.1986 75.6145 79.3684 71.2262 82.0756 67.0775C79.5503 66.8419 76.8683 66.7031 74.0537 66.7031L72.5965 66.7031L72.5965 13.8257L75.5109 13.8257L75.5109 63.702C93.2875 64.024 105.298 69.364 106.112 69.7406C106.926 69.364 118.936 64.024 136.713 63.702L136.713 13.8257L139.627 13.8257L139.627 66.7031L138.17 66.7031C119.528 66.7031 106.704 72.7903 106.704 72.7903L106.112 73.0697L105.52 72.7903C105.52 72.7903 98.1981 69.3149 86.5772 67.6162C83.2512 72.3843 80.6628 77.1533 80.6628 82.5534L80.6628 94.7788C80.6628 101.876 75.3929 107.753 68.5634 108.737L68.5634 110.911C68.5634 113.133 66.7516 114.945 64.5302 114.945L60.4971 114.945C58.2757 114.945 56.4639 113.133 56.4639 110.911L56.4639 108.737C49.6344 107.753 44.3645 101.876 44.3645 94.7788L44.3645 80.7416C43.6792 74.4398 39.5909 68.8943 35.2269 63.0809C29.8074 55.8338 24.1988 48.3347 24.1988 38.3148C24.1988 17.1802 41.3791 0 62.5137 0C70.1796 0 77.3239 2.26497 83.3187 6.15612C95.9412 6.93382 105.255 11.7214 106.112 12.1733C107.045 11.6812 118.003 6.04964 132.341 6.04964L133.799 6.04964L133.799 60.4822L132.341 60.4822C118.157 60.4822 106.767 66.5391 106.767 66.5391L106.112 66.8853L105.457 66.5391C105.457 66.5391 94.0673 60.4822 79.8825 60.4822L78.4253 60.4822ZM104.655 14.8463C102.691 13.8986 93.3558 9.66431 81.3396 9.2998L81.3396 57.5115C92.8321 57.8396 101.552 61.3935 104.655 62.8211L104.655 14.8463ZM130.884 9.2998L130.884 57.5115C119.392 57.8396 110.671 61.3935 107.569 62.8211L107.569 14.8463C109.533 13.8986 118.868 9.66431 130.884 9.2998ZM47.0112 14.7146C51.5879 11.7055 56.8499 10.1222 62.2379 10.0828C64.0339 10.0671 65.8457 10.2167 67.6496 10.5555C68.7445 10.7524 69.4692 11.8001 69.2644 12.895C69.0675 13.9978 68.0198 14.7225 66.9249 14.5177C60.7334 13.3834 54.4552 14.6437 49.2326 18.0782C48.8939 18.3067 48.5079 18.4091 48.1219 18.4091C47.4681 18.4091 46.8222 18.094 46.4441 17.5032C45.8297 16.5737 46.0817 15.3212 47.0112 14.7146ZM8.28683 16.4082C8.60192 15.6362 9.35026 15.1636 10.1301 15.1478C10.3979 15.14 10.6579 15.1872 10.9178 15.2896L18.3933 18.3145C19.4252 18.732 19.9294 19.9057 19.5119 20.9455C19.1968 21.7253 18.4406 22.2059 17.645 22.2059C17.3929 22.2059 17.133 22.1586 16.8888 22.0562L9.4054 19.0313C8.37348 18.6217 7.87721 17.4401 8.28683 16.4082ZM0 38.3148C0 37.2041 0.898006 36.2982 2.01657 36.2982L14.116 36.2982C15.2346 36.2982 16.1326 37.2041 16.1326 38.3148C16.1326 39.4255 15.2346 40.3314 14.116 40.3314L2.01657 40.3314C0.898006 40.3314 0 39.4255 0 38.3148ZM53.0216 44.9553C53.4155 44.5615 53.9354 44.3645 54.4474 44.3645C54.9594 44.3645 55.4793 44.5615 55.8732 44.9553L59.9063 48.9885C60.694 49.7762 60.694 51.0523 59.9063 51.84C59.5125 52.2339 59.0004 52.4308 58.4805 52.4308C57.9606 52.4308 57.4486 52.2339 57.0548 51.84L53.0216 47.8069C52.2339 47.0192 52.2339 45.743 53.0216 44.9553ZM65.1053 48.9963C65.507 48.6024 66.019 48.4055 66.5389 48.4055C67.0509 48.4055 67.563 48.6024 67.9647 48.9963C68.7524 49.7919 68.7524 51.0602 67.9647 51.8557L64.5302 55.2824L64.5302 66.5468C64.5302 67.6575 63.6322 68.5634 62.5137 68.5634C61.3951 68.5634 60.4971 67.6575 60.4971 66.5468L60.4971 54.4474C60.4971 53.9117 60.7098 53.3997 61.0879 53.0216L65.1053 48.9963ZM16.8888 54.5734C17.1408 54.471 17.4087 54.4238 17.6686 54.4316C18.4563 54.4474 19.1968 54.9121 19.5119 55.6841C19.9294 56.7239 19.4252 57.8976 18.3933 58.3151L10.9178 61.34C10.6658 61.4345 10.4137 61.4818 10.1616 61.4818C9.36601 61.4818 8.6098 61.0091 8.28683 60.2214C7.87721 59.1895 8.37348 58.0079 9.4054 57.5983L16.8888 54.5734ZM76.6296 86.9489L76.6296 84.696L48.3976 84.696L48.3976 90.4779L76.6296 86.9489ZM76.6296 94.7788L76.6296 91.0135L48.3976 94.5425L48.3976 94.7788C48.3976 100.34 52.9191 104.862 58.4805 104.862L66.5468 104.862C70.509 104.862 73.912 102.546 75.5583 99.2137L56.6293 101.577C56.5427 101.593 56.456 101.593 56.3772 101.593C55.3768 101.593 54.5103 100.852 54.3843 99.8281C54.2425 98.7253 55.0224 97.717 56.1252 97.5831L76.606 95.023C76.606 94.9363 76.6296 94.8576 76.6296 94.7788ZM64.5302 110.911L64.5302 108.895L60.4971 108.895L60.4971 110.911L64.5302 110.911Z" transform="translate(226.8263 0)" id="Vector" fill="#211D1F" fill-rule="evenodd" stroke="#211D1F" stroke-width="1" />
    <path d="M147.62 78.76C145.2 78.76 143.202 78.1 141.625 76.78C140.048 75.46 139.26 73.5167 139.26 70.95L139.26 7.81Q139.26 3.96001 141.625 1.98C143.202 0.660007 145.2 3.8147e-06 147.62 0C149.967 0 151.928 0.66 153.505 1.98C155.082 3.30001 155.87 5.24334 155.87 7.81L155.87 70.95C155.87 73.5167 155.082 75.46 153.505 76.78C151.928 78.1 149.967 78.76 147.62 78.76ZM214.5 26.18C210.907 23.9067 206.763 22.77 202.07 22.77C198.403 22.77 195.085 23.5217 192.115 25.025C189.145 26.5283 186.853 28.6367 185.24 31.35L185.24 7.26Q185.24 3.96001 183.04 1.98Q180.84 0 177.21 0Q173.36 0 170.995 2.09C169.418 3.48333 168.63 5.31667 168.63 7.59L168.63 70.95C168.63 73.2967 169.382 75.185 170.885 76.615C172.388 78.045 174.387 78.76 176.88 78.76C179.373 78.76 181.353 78.045 182.82 76.615C184.287 75.185 185.02 73.2967 185.02 70.95L185.02 70.07Q187.44 74.25 191.95 76.615C194.957 78.1917 198.33 78.98 202.07 78.98Q209 78.98 214.445 75.405C218.075 73.0217 220.898 69.685 222.915 65.395C224.932 61.105 225.94 56.1733 225.94 50.6C225.94 45.0267 224.932 40.1317 222.915 35.915C220.898 31.6983 218.093 28.4533 214.5 26.18ZM49.83 37.95C54.3033 39.27 57.7683 41.5617 60.225 44.825C62.6817 48.0883 63.91 52.1033 63.91 56.87Q63.91 66.66 56.705 72.38Q49.5 78.1 36.85 78.1L8.03 78.1C5.46333 78.1 3.48333 77.4033 2.09 76.01C0.696667 74.6167 0 72.6367 0 70.07L0 8.57999Q0 4.72999 2.09 2.63998Q4.18 0.549988 8.03 0.549988L35.75 0.549988Q47.85 0.549988 54.945 5.93999Q62.04 11.33 62.04 20.68C62.04 24.7133 60.9583 28.2517 58.795 31.295C56.6317 34.3383 53.6433 36.5567 49.83 37.95ZM32.89 32.12L16.72 32.12L16.72 13.64L32.89 13.64Q39.49 13.64 42.625 15.895C44.715 17.3983 45.76 19.7633 45.76 22.99C45.76 26.07 44.715 28.3617 42.625 29.865C40.535 31.3683 37.29 32.12 32.89 32.12ZM118.14 22.99C120.707 22.99 122.742 23.6867 124.245 25.08C125.748 26.4733 126.5 28.38 126.5 30.8L126.5 71.17C126.5 73.4433 125.712 75.2767 124.135 76.67C122.558 78.0633 120.523 78.76 118.03 78.76C115.683 78.76 113.813 78.1 112.42 76.78C111.027 75.46 110.33 73.7 110.33 71.5L110.33 70.4C108.643 73.1867 106.425 75.3133 103.675 76.78C100.925 78.2467 97.8267 78.98 94.38 78.98Q84.15 78.98 79.145 73.315C75.8083 69.5383 74.14 63.8367 74.14 56.21L74.14 30.8C74.14 28.38 74.8917 26.4733 76.395 25.08C77.8983 23.6867 79.9333 22.99 82.5 22.99C85.0667 22.99 87.0833 23.6867 88.55 25.08C90.0167 26.4733 90.75 28.38 90.75 30.8L90.75 56.54C90.75 59.7667 91.4283 62.15 92.785 63.69C94.1417 65.23 96.2133 66 99 66C102.227 66 104.848 64.9 106.865 62.7C108.882 60.5 109.89 57.6033 109.89 54.01L109.89 30.8C109.89 28.38 110.623 26.4733 112.09 25.08C113.557 23.6867 115.573 22.99 118.14 22.99ZM206.25 62.205Q203.06 66.33 197.23 66.33C193.343 66.33 190.337 64.9917 188.21 62.315C186.083 59.6383 185.02 55.8066 185.02 50.82C185.02 45.9066 186.083 42.1116 188.21 39.435C190.337 36.7583 193.343 35.42 197.23 35.42Q203.06 35.42 206.25 39.325C208.377 41.9283 209.44 45.6867 209.44 50.6C209.44 55.5867 208.377 59.455 206.25 62.205ZM34.87 65.01C39.4167 65.01 42.7167 64.24 44.77 62.7Q47.85 60.39 47.85 55.22C47.85 51.7734 46.8233 49.2434 44.77 47.63C42.7167 46.0167 39.4167 45.21 34.87 45.21L16.72 45.21L16.72 65.01L34.87 65.01Z" transform="translate(0 25.67499)" id="Vector" fill="#211D1F" fill-rule="evenodd" stroke="none" />
  </g>
</svg>