<?xml version="1.0" encoding="utf-8"?>
<svg width="318px" height="84px" viewBox="0 0 318 84" version="1.1" xmlns:xlink="http://www.w3.org/1999/xlink" xmlns="http://www.w3.org/2000/svg">
  <desc>Created with Lunacy</desc>
  <defs>
    <filter filterUnits="userSpaceOnUse" color-interpolation-filters="sRGB" id="filter_1">
      <feFlood flood-opacity="0" result="BackgroundImageFix" />
      <feColorMatrix in="SourceAlpha" type="matrix" values="0 0 0 0 0 0 0 0 0 0 0 0 0 0 0 0 0 0 127 0" />
      <feOffset dx="3" dy="3" />
      <feGaussianBlur stdDeviation="2" />
      <feColorMatrix type="matrix" values="0 0 0 0 0.3921569 0 0 0 0 0.3921569 0 0 0 0 0.3921569 0 0 0 0.4980392 0" />
      <feBlend mode="normal" in2="BackgroundImageFix" result="effect0_dropShadow" />
      <feBlend mode="normal" in="SourceGraphic" in2="effect0_dropShadow" result="shape" />
    </filter>
    <path d="M0 36.7857C0 16.4695 16.1695 0 36.1156 0C56.0617 0 72.2312 16.4695 72.2312 36.7857C72.2312 57.1019 56.0617 73.5714 36.1156 73.5714C16.1695 73.5714 0 57.1019 0 36.7857Z" id="path_1" />
    <clipPath id="mask_1">
      <use xlink:href="#path_1" />
    </clipPath>
  </defs>
  <g id="Group">
    <g stroke="#322C2C" stroke-width="1" stroke-linecap="round" stroke-linejoin="round" id="Reciply" fill="#FFFFFF" transform="translate(86.00003 0)">
      <path d="M117.281 23.7813L117.281 16L126.719 16L126.719 23.7813L117.281 23.7813ZM172.375 64.75L172.375 59.2813L176.781 58.3438L176.781 22.4375L171.906 21.5L171.906 16L185.906 16L185.906 58.3438L190.313 59.2813L190.313 64.75L172.375 64.75ZM1.75 64.75L1.75 59.2813L6.59375 58.3438L6.59375 25.6875L1.75 24.75L1.75 19.25L23.3125 19.25Q28.5625 19.25 32.3125 20.875Q36.0625 22.5 38.0781 25.5313Q40.0938 28.5625 40.0938 32.8125Q40.0938 36.8125 38.0938 39.9688Q36.0937 43.125 32.5313 44.9375Q32.4796 44.9638 32.4276 44.9897L38.2188 58.375L42.0938 59.2813L42.0938 64.75L31.0313 64.75L24.0323 46.7813L15.7188 46.7813L15.7188 58.3438L20.5938 59.2813L20.5938 64.75L1.75 64.75ZM15.7188 39.75L23.1563 39.75Q27.0937 39.75 29.0469 38.0781Q31 36.4063 31 33.2188Q31 30.0625 29.0625 28.1719Q27.125 26.2813 23.3125 26.2813L15.7188 26.2813L15.7188 39.75ZM62.1563 65.4063Q57.3125 65.4063 53.6875 63.2656Q50.0625 61.125 48.0781 57.375Q46.0938 53.625 46.0938 48.8125L46.0938 47.5625Q46.0938 42.5313 47.9688 38.6406Q49.8438 34.75 53.2656 32.5156Q56.6875 30.2813 61.3438 30.3125Q65.9375 30.3125 69.0625 32.125Q72.1875 33.9375 73.8125 37.3438Q75.4375 40.75 75.4375 45.5938L75.4375 50.5625L55.5625 50.5625L55.5 50.75Q55.6875 52.9688 56.6094 54.7031Q57.5313 56.4375 59.2188 57.4219Q60.9063 58.4063 63.3125 58.4063Q65.8125 58.4063 67.9844 57.7656Q70.1563 57.125 72.2188 55.875L74.6875 61.5Q72.5938 63.1875 69.4219 64.2969Q66.25 65.4063 62.1563 65.4063ZM87.1406 63.2188Q90.6875 65.4063 95.5625 65.4063Q99.9688 65.4063 102.828 64Q105.688 62.5938 107.266 59.9688Q108.844 57.3438 109.375 53.75L109.281 53.5625L101.5 53.5625Q100.938 55.875 99.4844 57.1406Q98.0313 58.4063 95.625 58.4063Q93.75 58.4063 92.2344 57.3438Q90.7188 56.2813 89.8125 54.0469Q88.9063 51.8125 88.9063 48.3438L88.9063 47.4063Q88.9063 44.125 89.7188 41.8125Q90.5313 39.5 92.1719 38.25Q93.8125 37 96.3125 37Q97.5 37 98.6563 37.4688Q99.8125 37.9375 100.563 38.6875L101.781 44.7188L108.656 44.7188L108.719 35.0313Q106.656 33.1563 103.359 31.7344Q100.063 30.3125 95.5 30.3125Q90.7188 30.3125 87.1875 32.5156Q83.6563 34.7188 81.7188 38.5625Q79.7813 42.4063 79.7813 47.4063L79.7813 48.3438Q79.7813 53.3125 81.6875 57.1719Q83.5938 61.0313 87.1406 63.2188ZM133.906 72.25L133.906 77.75L151.813 77.75L151.813 72.25L147.406 71.3125L147.406 61.5313Q148.875 63.4375 150.953 64.4219Q153.031 65.4063 155.75 65.4063Q159.875 65.4063 162.797 63.3281Q165.719 61.25 167.266 57.5156Q168.813 53.7813 168.813 48.7813L168.813 48.125Q168.813 42.7813 167.266 38.7813Q165.719 34.7813 162.813 32.5469Q159.906 30.3125 155.813 30.3125Q152.875 30.3125 150.75 31.5Q148.625 32.6875 147.125 34.875L146.688 30.9375L133.438 30.9375L133.438 36.4375L138.313 37.375L138.313 71.3125L133.906 72.25ZM113.188 64.75L113.188 59.2813L117.594 58.3438L117.594 37.375L112.719 36.4375L112.719 30.9375L126.719 30.9375L126.719 58.3438L131.094 59.2813L131.094 64.75L113.188 64.75ZM200.141 78.2031Q201.469 78.4063 202.656 78.4063Q205.906 78.4063 208.141 77.2188Q210.375 76.0313 211.828 74.0781Q213.281 72.125 214.219 69.7813L227.125 36.9688L230.938 36.4375L230.938 30.9375L214.219 30.9375L214.219 36.4375L218.25 37L211.969 53.8125L211.781 53.8125L211.125 51.9688L205.813 37.0625L209.938 36.4375L209.938 30.9375L192 30.9375L192 36.4375L196.156 37.0313L207.469 65.125L206.719 67.2188Q206.063 69.1563 204.625 70.1875Q203.188 71.2188 201.219 71.2188Q200.688 71.2188 199.969 71.1563Q199.25 71.0938 198.656 70.9688L197.625 77.6563Q198.813 78 200.141 78.2031ZM55.625 44.5313L66.9063 44.5313L66.9063 43.7188Q66.9063 41.6563 66.3594 40.1719Q65.8125 38.6875 64.6094 37.875Q63.4063 37.0625 61.5 37.0625Q59.6875 37.0625 58.4375 38.0156Q57.1875 38.9688 56.4844 40.625Q55.7813 42.2813 55.5313 44.375L55.625 44.5313ZM158.109 55.8125Q156.531 58.4063 153.031 58.4063Q151.094 58.4063 149.672 57.6563Q148.25 56.9063 147.406 55.4688L147.406 40.6563Q148.25 39.0938 149.672 38.25Q151.094 37.4063 152.969 37.4063Q155.281 37.4063 156.766 38.7656Q158.25 40.125 158.969 42.5156Q159.688 44.9063 159.688 48.125L159.688 48.7813Q159.688 53.2188 158.109 55.8125Z" />
    </g>
    <g id="Logo-Symbol-instance-2" transform="translate(0 4)">
      <g id="Logo" transform="translate(1.132393 0.4442096)">
        <path d="M0 36.7857C0 16.4695 16.1695 0 36.1156 0C56.0617 0 72.2312 16.4695 72.2312 36.7857C72.2312 57.1019 56.0617 73.5714 36.1156 73.5714C16.1695 73.5714 0 57.1019 0 36.7857Z" id="Oval" fill="#CD3800" stroke="none" />
        <g clip-path="url(#mask_1)">
          <g id="Logo" transform="translate(-17.35639 -4.72995)">
            <g filter="url(#filter_1)">
              <path d="M59.4657 4.3936C59.5501 4.47861 59.6365 4.5472 59.7218 4.63415C59.8356 4.74815 59.902 4.88726 59.9447 5.03218C62.5084 8.23084 63.4948 11.5106 62.848 14.8069C61.1995 23.2127 49.4906 29.2815 42.6578 32.1517C41.8583 32.4879 41.1156 32.8058 40.3976 33.1139L49.9943 42.8886C51.6759 44.6092 51.6759 47.4079 49.9962 49.1266L49.9867 49.1362L54.5707 53.8043C56.1423 55.5142 56.0996 58.1168 54.4948 59.7514C53.7057 60.5552 52.6567 60.9977 51.5393 60.9977C50.4192 60.9977 49.3673 60.5542 48.5754 59.7476L44.072 55.1607L44.0625 55.1703C43.2497 55.9982 42.1637 56.4552 41.0028 56.4552C39.8428 56.4552 38.7558 55.9982 37.943 55.1703L26.3251 43.3379C23.6893 46.2999 13.2969 57.6348 12.817 58.1584C12.7402 58.2463 10.498 60.8074 7.85932 60.8933C7.8119 60.8953 7.76542 60.8962 7.718 60.8962C6.57888 60.8962 5.55643 60.4431 4.67624 59.5466C4.65917 59.5292 4.65443 59.507 4.6383 59.4887C4.62028 59.4722 4.59752 59.4664 4.5795 59.4481C3.66232 58.5149 3.21749 57.4232 3.25638 56.205C3.33984 53.5174 5.85614 51.2326 5.96332 51.136C6.45747 50.6646 17.585 40.0832 20.492 37.3965L5.72716 22.3577C4.04077 20.6381 4.04077 17.8413 5.72716 16.1236L5.73759 16.114L1.15457 11.4469C-0.418004 9.73791 -0.375322 7.13434 1.22855 5.49878C2.01767 4.69598 3.06763 4.25352 4.18399 4.25352C5.30413 4.25352 6.35789 4.69791 7.14891 5.50458L11.6513 10.0896L11.6589 10.0818C12.4774 9.25294 13.5634 8.79695 14.7215 8.79695C15.8796 8.79695 16.9675 9.25294 17.7841 10.0799L30.5297 23.0668C30.8323 22.3355 31.1443 21.5781 31.4744 20.7617C34.2933 13.8022 40.2525 1.87505 48.5033 0.196981C51.7385 -0.463811 54.9624 0.541869 58.1047 3.15509C58.2441 3.19953 58.3788 3.26812 58.4898 3.38115C58.5751 3.4681 58.6425 3.55505 58.725 3.64199C58.7857 3.68836 58.8312 3.75309 58.8815 3.81395C58.8967 3.83134 58.909 3.8468 58.9251 3.86322C58.9877 3.91056 59.0427 3.9608 59.0911 4.02069C59.149 4.06996 59.1992 4.12503 59.2457 4.18782C59.2647 4.20714 59.2836 4.2226 59.3026 4.24096C59.3605 4.29023 59.4212 4.3337 59.4657 4.3936ZM48.876 2.09144C41.2152 3.64971 35.3821 16.1825 33.23 21.4978C32.7871 22.5914 32.3717 23.5951 31.9761 24.5409L32.2531 24.823C32.5917 24.2279 32.9303 23.6347 33.2585 23.0319L33.6511 22.3083C37.0457 16.0395 44.2788 2.68171 53.6904 2.63341C52.0771 1.95426 50.4694 1.76974 48.876 2.09144ZM35.8241 23.6551C35.2541 24.4299 34.5437 25.366 33.7726 26.3698L33.6436 26.2393C34.0723 25.4906 34.501 24.7332 34.9183 23.9681L35.3119 23.2407C38.6003 17.1689 45.7546 3.95982 54.4654 4.63607C47.1024 8.78534 35.9588 23.4735 35.8241 23.6551ZM57.6693 5.59827C57.656 5.56928 57.6418 5.5403 57.6285 5.51132C57.5934 5.4949 57.5583 5.47654 57.5232 5.46108C53.7644 5.54513 42.5924 17.6799 37.3416 24.8153C36.7299 25.6462 35.9588 26.6605 35.1232 27.7464L35.8013 28.4362C36.8674 27.5841 37.8633 26.7996 38.678 26.1765C40.5219 24.7699 45.8067 20.3685 50.3717 15.7401C56.5795 9.44709 57.6133 6.69186 57.6693 5.59827ZM2.51752 10.104C1.66864 9.18242 1.6933 7.7594 2.57063 6.86482C3.00124 6.42622 3.57412 6.18567 4.18398 6.18567C4.79764 6.18567 5.37431 6.42912 5.80776 6.87062L10.3102 11.4556L7.07872 14.7479L2.51752 10.104ZM58.4907 8.74962C59.1423 17.6184 46.1816 24.8972 40.2189 28.246L40.2174 28.2468L39.5099 28.6449C38.7606 29.068 38.0189 29.5056 37.2828 29.9433L37.1529 29.8109C38.1384 29.0245 39.0555 28.3019 39.8153 27.7223C39.9945 27.5851 54.4161 16.2579 58.4907 8.74962ZM60.9871 14.4282C59.4572 22.2331 47.1536 28.1734 41.9351 30.3645C40.8614 30.8156 39.876 31.2378 38.9493 31.6407C38.8554 31.546 38.7606 31.4503 38.6705 31.3595C39.2547 31.0156 39.8361 30.6688 40.4289 30.3345L41.1337 29.9384C47.2902 26.4809 60.4114 19.1107 60.4569 9.52442C61.1237 11.1677 61.3049 12.8071 60.9871 14.4282ZM48.6528 47.7625C49.5965 46.7964 49.5965 45.2207 48.6509 44.2527L38.5412 33.9583C38.3762 33.7911 38.2102 33.625 38.0508 33.4569C37.4571 32.8608 36.8823 32.2744 36.4498 31.8262L35.7584 31.1219C35.7024 31.0688 35.6009 30.9654 35.4739 30.8359L30.1824 25.4424L16.4439 11.4478C15.9867 10.9851 15.374 10.7291 14.7215 10.7291C14.0699 10.7291 13.4562 10.9851 12.9981 11.4498L12.3313 12.1289C12.3285 12.1328 12.3266 12.1367 12.3237 12.1405L7.75119 16.7989C7.7474 16.8028 7.74171 16.8047 7.73696 16.8086L7.0683 17.4897C6.12078 18.4548 6.12078 20.0256 7.06924 20.9917L39.2848 53.8043C40.1963 54.7307 41.8115 54.7307 42.7211 53.8043L43.4011 53.1116L47.9746 48.4532L48.6528 47.7625ZM9.35032 21.0236C8.97946 20.6458 8.97946 20.0353 9.35032 19.6576C9.72117 19.2808 10.3206 19.2808 10.6915 19.6576L40.2999 49.8154C40.6708 50.1931 40.6708 50.8037 40.2999 51.1814C40.115 51.3698 39.8722 51.4645 39.6294 51.4645C39.3865 51.4645 39.1437 51.3698 38.9588 51.1814L9.35032 21.0236ZM7.79482 58.9621C9.30005 58.9167 10.9172 57.429 11.4132 56.859C11.5479 56.7112 22.4886 44.7783 24.984 41.969L21.836 38.7636C19.0769 41.3063 7.36422 52.445 7.23712 52.5658C6.65855 53.0894 5.19791 54.7356 5.15238 56.2707C5.13341 56.9411 5.38475 57.5343 5.92159 58.0811C5.93866 58.0985 5.9434 58.1207 5.95858 58.139C5.97755 58.1555 6.00031 58.1613 6.01833 58.1796C6.55517 58.7264 7.15176 58.9873 7.79482 58.9621ZM53.2067 55.148C54.0547 56.0697 54.03 57.4927 53.1527 58.3863C52.2905 59.2664 50.7805 59.2625 49.9155 58.3824L45.4122 53.7955L48.6446 50.5032L53.2067 55.148Z" transform="translate(15.90371 17.80479)" id="Shape" fill="#FFFFFF" fill-rule="evenodd" stroke="none" />
            </g>
          </g>
        </g>
      </g>
    </g>
  </g>
</svg>