<?xml version="1.0" encoding="utf-8"?>
<svg width="360px" height="59px" viewBox="0 0 360 59" version="1.1" xmlns:xlink="http://www.w3.org/1999/xlink" xmlns="http://www.w3.org/2000/svg">
  <desc>Created with Lunacy</desc>
  <g id="This-Website!">
    <path d="M72.95 17.35Q70.8 17.35 69.45 16.1Q68.1 14.85 68.1 13Q68.1 11.15 69.45 9.9Q70.8 8.65 72.95 8.65Q75.1 8.65 76.45 9.85Q77.8 11.05 77.8 12.85Q77.8 14.8 76.45 16.075Q75.1 17.35 72.95 17.35ZM279.45 17.35Q277.3 17.35 275.95 16.1Q274.6 14.85 274.6 13Q274.6 11.15 275.95 9.9Q277.3 8.65 279.45 8.65Q281.6 8.65 282.95 9.85Q284.3 11.05 284.3 12.85Q284.3 14.8 282.95 16.075Q281.6 17.35 279.45 17.35ZM58.925 23.7Q55.85 20.7 50.85 20.7Q48.25 20.7 46.05 21.525Q43.85 22.35 42.3 23.9L42.3 10.9L34.5 10.9L34.5 48L42.3 48L42.3 34.7Q42.3 31.1 44.05 29.275Q45.8 27.45 48.75 27.45Q51.4 27.45 52.8 29.025Q54.2 30.6 54.2 33.8L54.2 48L62 48L62 32.6Q62 26.7 58.925 23.7ZM230.4 20.7Q234.15 20.7 237.225 22.425Q240.3 24.15 242.05 27.275Q243.8 30.4 243.8 34.55Q243.8 38.7 242.05 41.825Q240.3 44.95 237.225 46.675Q234.15 48.4 230.4 48.4Q224.85 48.4 221.95 44.9L221.95 48L214.5 48L214.5 10.9L222.3 10.9L222.3 23.95Q225.25 20.7 230.4 20.7ZM0.2 19.6L11.4 19.6L11.4 48L19.5 48L19.5 19.6L30.7 19.6L30.7 13L0.2 13L0.2 19.6ZM178.25 13L166.8 48L158.1 48L150.4 24.3L142.45 48L133.8 48L122.3 13L130.7 13L138.6 37.6L146.85 13L154.35 13L162.35 37.8L170.5 13L178.25 13ZM352.2 13L342.9 13L344.45 35.85L350.65 35.85L352.2 13ZM305.125 47.975Q306.8 47.55 307.95 46.7L305.85 41.2Q304.55 42.2 302.7 42.2Q301.1 42.2 300.225 41.275Q299.35 40.35 299.35 38.65L299.35 27.7L306.05 27.7L306.05 21.7L299.35 21.7L299.35 15.15L291.55 15.15L291.55 21.7L287.4 21.7L287.4 27.7L291.55 27.7L291.55 38.75Q291.55 43.5 294.175 45.95Q296.8 48.4 301.6 48.4Q303.45 48.4 305.125 47.975ZM86.6 47.575Q89.8 48.4 93.15 48.4Q97.1 48.4 99.975 47.325Q102.85 46.25 104.35 44.3Q105.85 42.35 105.85 39.85Q105.85 36.9 104.3 35.25Q102.75 33.6 100.65 32.975Q98.55 32.35 95.25 31.8Q92.3 31.35 90.95 30.85Q89.6 30.35 89.6 29.1Q89.6 28 90.85 27.3Q92.1 26.6 94.6 26.6Q98.8 26.6 102.35 28.6L104.95 23.05Q103.1 21.95 100.275 21.325Q97.45 20.7 94.6 20.7Q90.75 20.7 87.925 21.8Q85.1 22.9 83.625 24.875Q82.15 26.85 82.15 29.4Q82.15 32.45 83.725 34.1Q85.3 35.75 87.45 36.4Q89.6 37.05 92.9 37.55Q95.7 37.9 97.05 38.4Q98.4 38.9 98.4 40.05Q98.4 42.5 93.45 42.5Q91 42.5 88.45 41.775Q85.9 41.05 84.1 39.9L81.5 45.5Q83.4 46.75 86.6 47.575ZM188.8 36.75L209.15 36.75Q209.3 34.8 209.3 34.65Q209.3 30.45 207.475 27.275Q205.65 24.1 202.45 22.4Q199.25 20.7 195.3 20.7Q191.25 20.7 187.975 22.475Q184.7 24.25 182.825 27.425Q180.95 30.6 180.95 34.55Q180.95 38.55 182.85 41.7Q184.75 44.85 188.25 46.625Q191.75 48.4 196.3 48.4Q203.6 48.4 207.4 44.05L203.25 39.55Q201.85 40.9 200.225 41.525Q198.6 42.15 196.5 42.15Q193.45 42.15 191.4 40.7Q189.35 39.25 188.8 36.75ZM251.5 47.575Q254.7 48.4 258.05 48.4Q262 48.4 264.875 47.325Q267.75 46.25 269.25 44.3Q270.75 42.35 270.75 39.85Q270.75 36.9 269.2 35.25Q267.65 33.6 265.55 32.975Q263.45 32.35 260.15 31.8Q257.2 31.35 255.85 30.85Q254.5 30.35 254.5 29.1Q254.5 28 255.75 27.3Q257 26.6 259.5 26.6Q263.7 26.6 267.25 28.6L269.85 23.05Q268 21.95 265.175 21.325Q262.35 20.7 259.5 20.7Q255.65 20.7 252.825 21.8Q250 22.9 248.525 24.875Q247.05 26.85 247.05 29.4Q247.05 32.45 248.625 34.1Q250.2 35.75 252.35 36.4Q254.5 37.05 257.8 37.55Q260.6 37.9 261.95 38.4Q263.3 38.9 263.3 40.05Q263.3 42.5 258.35 42.5Q255.9 42.5 253.35 41.775Q250.8 41.05 249 39.9L246.4 45.5Q248.3 46.75 251.5 47.575ZM338.55 36.75L318.2 36.75Q318.75 39.25 320.8 40.7Q322.85 42.15 325.9 42.15Q328 42.15 329.625 41.525Q331.25 40.9 332.65 39.55L336.8 44.05Q333 48.4 325.7 48.4Q321.15 48.4 317.65 46.625Q314.15 44.85 312.25 41.7Q310.35 38.55 310.35 34.55Q310.35 30.6 312.225 27.425Q314.1 24.25 317.375 22.475Q320.65 20.7 324.7 20.7Q328.65 20.7 331.85 22.4Q335.05 24.1 336.875 27.275Q338.7 30.45 338.7 34.65Q338.7 34.8 338.55 36.75ZM76.85 21.1L76.85 48L69.05 48L69.05 21.1L76.85 21.1ZM190.9 28.1Q192.7 26.6 195.35 26.6Q197.95 26.6 199.75 28.125Q201.55 29.65 201.95 32.2L188.7 32.2Q189.1 29.6 190.9 28.1ZM324.75 26.6Q322.1 26.6 320.3 28.1Q318.5 29.6 318.1 32.2L331.35 32.2Q330.95 29.65 329.15 28.125Q327.35 26.6 324.75 26.6ZM275.55 21.1L283.35 21.1L283.35 48L275.55 48L275.55 21.1ZM229.05 42Q232.05 42 233.975 39.975Q235.9 37.95 235.9 34.55Q235.9 31.15 233.975 29.125Q232.05 27.1 229.05 27.1Q226.05 27.1 224.125 29.125Q222.2 31.15 222.2 34.55Q222.2 37.95 224.125 39.975Q226.05 42 229.05 42ZM344.125 47.075Q345.5 48.4 347.55 48.4Q349.6 48.4 350.975 47.075Q352.35 45.75 352.35 43.85Q352.35 41.95 351 40.675Q349.65 39.4 347.55 39.4Q345.45 39.4 344.1 40.675Q342.75 41.95 342.75 43.85Q342.75 45.75 344.125 47.075Z" />
  </g>
</svg>