<?xml version="1.0" encoding="utf-8"?>
<svg width="1500px" height="1248px" viewBox="0 0 1500 1248" version="1.1" xmlns:xlink="http://www.w3.org/1999/xlink" xmlns="http://www.w3.org/2000/svg">
  <desc>Created with Lunacy</desc>
  <g id="icons">
    <path d="M0 0L1500 0L1500 1248L0 1248L0 0Z" id="Rectangle" fill="#F9F9F9" stroke="none" />
    <path d="M4.54427 44.1741L0 -1.52588e-05L50 -1.52588e-05L45.4557 44.1741L25 50L4.54427 44.1741ZM40.1432 14.2076L40.7682 8.92857L9.23177 8.92857L9.98698 14.2076L25.9896 14.2076L25.1432 14.5089L10.5469 19.721L11.0156 24.8884L11.0417 24.8772L11.0417 24.8884L32.6953 24.9442L32.2135 31.8192L25.0911 33.5379L18.2422 32.0536L17.8255 27.779L11.4583 27.779L12.2917 36.0268L25.1563 39.2857L37.9427 36.0826L39.6094 19.721L25.0911 19.721L25.1302 19.7098L40.1432 14.2076Z" transform="matrix(0.7071066 -0.7071066 0.7071066 0.7071066 3.999968 59.99968)" id="css" fill="#4A2F8F" fill-rule="evenodd" stroke="none" />
    <path d="M39.2578 13.6803C39.7852 13.8365 40.3125 14.0026 40.8398 14.1783C46.1523 16.0045 50 18.8756 50 21.8346C50 24.9303 45.918 27.9479 40.2832 29.8131C39.9805 29.9108 39.6777 30.0084 39.3652 30.0963C39.4727 30.5455 39.5703 30.985 39.6582 31.4147C40.7715 37.0397 39.9121 41.6588 37.2754 43.1823C34.7266 44.6569 30.5957 43.2018 26.416 39.608C25.9668 39.2174 25.5176 38.817 25.0879 38.3971C24.7461 38.7291 24.4043 39.0416 24.0625 39.3444C19.7461 43.1237 15.3125 44.6862 12.6758 43.1627C10.1172 41.6881 9.31641 37.3912 10.3418 31.9713C10.459 31.3756 10.5859 30.7994 10.7324 30.2135C10.2832 30.0866 9.84375 29.9401 9.4043 29.7936C3.98438 27.9381 0 24.8815 0 21.8346C0 18.8854 3.74023 16.0338 8.95508 14.2272C9.53125 14.0221 10.1465 13.8268 10.7715 13.651C10.6348 13.1041 10.5176 12.567 10.4102 12.0201C9.33594 6.51233 10.0977 2.10803 12.6562 0.623657C15.3223 -0.929077 19.7754 0.731079 24.2187 4.67639C24.4922 4.92053 24.7656 5.17444 25.0293 5.42834C25.4199 5.04749 25.8301 4.66663 26.25 4.3053C30.4883 0.613891 34.6777 -0.919312 37.2461 0.555297C39.9121 2.09827 40.7031 6.776 39.502 12.5963C39.4238 12.9576 39.3457 13.319 39.2578 13.6803ZM27.6268 5.88741C31.2596 2.72335 34.6483 1.48312 36.1913 2.37179C37.8417 3.31905 38.4764 7.14718 37.4413 12.1765C37.3729 12.5085 37.3046 12.8308 37.2167 13.153C35.0487 12.6648 32.8514 12.3132 30.6444 12.1179C29.3749 10.3015 27.9882 8.5632 26.4843 6.93234C26.8651 6.57101 27.2362 6.22921 27.6268 5.88741ZM22.8124 6.24842C18.9745 2.84998 15.3319 1.48279 13.6913 2.43982C12.1483 3.3285 11.5429 6.89295 12.4608 11.6195C12.5683 12.1273 12.6757 12.6351 12.8026 13.1332C14.9706 12.6547 17.1581 12.3129 19.3651 12.1176C20.6444 10.3012 22.0409 8.56287 23.5546 6.93201C23.3007 6.69764 23.0565 6.46326 22.8124 6.24842ZM25.0195 8.42645C26.0449 9.53973 27.0117 10.7116 27.9101 11.9225C25.9765 11.8347 24.0331 11.8347 22.0995 11.9225C23.0566 10.6628 24.0429 9.49091 25.0195 8.42645ZM18.1346 17.9184C17.3925 19.2172 16.6893 20.5356 16.0448 21.8832C16.6991 23.2309 17.3925 24.5493 18.1444 25.8481C18.8964 27.1469 19.6971 28.4164 20.5468 29.6567C21.9823 29.7446 23.4667 29.7934 24.9999 29.7934C26.5331 29.7934 28.0468 29.7446 29.5018 29.6371C30.3319 28.3871 31.1229 27.1274 31.8651 25.8286C32.6171 24.52 33.3202 23.1918 33.9745 21.8442C33.3104 20.5063 32.6073 19.1879 31.8554 17.8989Q30.7274 15.9653 29.4823 14.1196C28.0272 14.0121 26.5233 13.9536 24.9999 13.9536C23.4764 13.9536 21.9823 14.0121 20.5175 14.1196C19.6776 15.3598 18.8768 16.6196 18.1346 17.9184ZM13.369 15.1548C14.7752 14.8423 16.2694 14.5884 17.8221 14.3931C17.3045 15.2037 16.7967 16.0338 16.3182 16.8736C15.8397 17.7037 15.3709 18.5533 14.9315 19.4127C14.3163 17.9576 13.7987 16.5318 13.369 15.1548ZM33.6719 16.8542C34.1602 17.6941 34.6289 18.5535 35.0879 19.4128C35.6836 18.0261 36.211 16.6199 36.6602 15.1746C35.2539 14.8523 33.75 14.5886 32.1778 14.3933Q32.9541 15.6091 33.6719 16.8542ZM11.2988 28.1823C10.8886 28.0651 10.4883 27.9381 10.0879 27.8014C8.00778 27.1471 5.6445 26.1119 3.93552 24.7545C2.94919 24.0709 2.28513 23.0162 2.09958 21.8346C2.09958 20.0475 5.18552 17.7623 9.63864 16.2096C10.1953 16.0143 10.7617 15.8385 11.3281 15.6725C11.9922 17.7916 12.7929 19.8717 13.7207 21.8834C12.7832 23.9244 11.9726 26.0338 11.2988 28.1823ZM39.6191 27.8112C39.3457 27.8991 39.0723 27.987 38.7891 28.0651C38.1055 25.9362 37.2656 23.8561 36.2988 21.8347C37.2363 19.8425 38.0273 17.7917 38.6914 15.6921C39.1992 15.8386 39.6875 15.9948 40.1563 16.1511C44.707 17.7136 47.9004 20.0378 47.9004 21.8151C47.9004 23.7292 44.4922 26.1999 39.6191 27.8112ZM29.4725 21.8734C29.4725 24.3441 27.4705 26.3461 24.9998 26.3461C22.5291 26.3461 20.5272 24.3441 20.5272 21.8734C20.5272 19.4027 22.5291 17.4008 24.9998 17.4008C27.4705 17.4008 29.4725 19.4027 29.4725 21.8734ZM33.6815 26.8832C34.1796 26.0239 34.6483 25.1547 35.1073 24.2758C35.7323 25.6918 36.2792 27.1274 36.7577 28.602C35.244 28.9438 33.7108 29.2075 32.1679 29.3832C32.6952 28.5629 33.1933 27.7231 33.6815 26.8832ZM17.8709 29.4319C17.3338 28.6019 16.826 27.7523 16.328 26.9026C15.8397 26.0628 15.3807 25.2132 14.9315 24.3538C14.3065 25.8382 13.7694 27.2933 13.3397 28.6995C14.8338 29.0218 16.3475 29.2659 17.8709 29.4319ZM36.2303 41.3655C37.1678 40.6135 37.7537 39.5002 37.8416 38.3088C38.1541 36.1409 38.076 33.9436 37.5974 31.8342C37.5193 31.4436 37.4314 31.0432 37.3338 30.6428C35.1365 31.1409 32.9099 31.4827 30.6736 31.6682C29.4236 33.5042 28.0467 35.2522 26.5525 36.9026C26.9724 37.2932 27.3826 37.6741 27.7928 38.0256C31.367 41.092 34.6775 42.2639 36.2303 41.3655ZM17.1776 41.1998C19.2088 40.399 21.0741 39.2271 22.6854 37.7525C22.9979 37.4791 23.3104 37.1861 23.6229 36.8834C22.1092 35.2427 20.6932 33.4947 19.4042 31.6685C17.1678 31.5025 14.9608 31.1802 12.7733 30.7115C12.6366 31.2486 12.5194 31.7955 12.412 32.3423C11.5331 36.981 12.1776 40.4283 13.7303 41.3267C14.8436 41.7662 16.0936 41.7174 17.1776 41.1998ZM25.0781 35.3795C24.082 34.3053 23.0859 33.1139 22.1191 31.8346C23.0566 31.8737 24.0234 31.8932 24.9999 31.8932C26.0058 31.8932 26.9921 31.8737 27.9687 31.8248C27.0703 33.0651 26.1035 34.2467 25.0781 35.3795Z" transform="matrix(0.7071067 -0.7071067 0.7071067 0.7071067 722.4212 68.13196)" id="react" fill="#FCCD3A" fill-rule="evenodd" stroke="none" />
    <path d="M49.9999 8.33346L49.9999 41.6661C49.9865 46.263 46.2632 49.9863 41.6663 49.9998L8.33364 49.9998C3.73666 49.9863 0.0134232 46.263 -6.10352e-05 41.666L-6.10352e-05 8.33346C0.0134071 3.73651 3.73663 0.013258 8.33361 -0.000244141L41.6662 -0.000244141C46.2632 0.0132231 49.9865 3.73647 49.9999 8.33346ZM32.2543 24.3872C36.9865 25.3983 37.7287 29.4965 37.7287 31.9039C37.7287 37.3883 33.4318 38.9017 31.8458 39.395C29.6765 40.0705 28.4125 40.067 20.1612 40.0436C18.3389 40.0384 16.1758 40.0323 13.5869 40.0323L13.5869 10.866L27.761 10.866C36.4592 10.866 36.4271 17.0477 36.4219 18.0395C36.4218 18.0607 36.4217 18.0795 36.4217 18.0959C36.4217 21.1528 34.8112 23.2142 32.2543 24.3057L32.2543 24.3872ZM27.0315 23.0804L27.0257 23.0803L18.6931 23.0803L18.6931 15.0245L27.0257 15.0245C30.9241 15.0245 31.3159 17.2957 31.3159 19.0279C31.3159 23.1317 27.2216 23.0827 27.0315 23.0804ZM32.6223 31.2417C32.6223 35.8844 28.3573 35.868 27.7517 35.8657L27.7205 35.8656L18.6926 35.8656L18.6926 26.7484L27.7205 26.7484C32.4705 26.7484 32.6223 30.3087 32.6223 31.2417Z" transform="matrix(0.7071067 -0.7071067 0.7071067 0.7071067 1435 66.64421)" id="bootstrap" fill="#4A2F8F" fill-rule="evenodd" stroke="none" />
    <path d="M27.441 43.8515C20.6542 31.0549 13.3903 17.3587 23.8664 0.792221C24.5305 -0.272206 25.8488 -0.252675 26.3664 0.782456C26.9426 1.925 49.8425 47.8809 49.8425 47.8809C50.3308 48.8477 49.6277 50 48.5339 50L31.5225 50C30.9659 50 30.4581 49.6777 30.214 49.1797C29.3323 47.4177 28.3913 45.6434 27.441 43.8515ZM12.4405 23.3594C12.9386 22.3341 14.1104 22.2853 14.8623 23.086C21.3368 29.9999 23.5634 41.5719 19.8623 49.1694C19.6279 49.6772 19.1201 49.9994 18.5537 49.9897L1.46416 49.9897C0.389962 49.9897 -0.332681 48.8471 0.155592 47.8706L12.4405 23.3594Z" transform="matrix(0.7071067 -0.7071067 0.7071067 0.7071067 1076.714 62.71082)" id="jira" fill="#1DAAA9" fill-rule="evenodd" stroke="none" />
    <path d="M40.6249 45.3125L40.6249 4.6875C40.6249 2.09863 38.5263 0 35.9374 0L14.0625 0C11.4736 0 9.375 2.09863 9.375 4.6875L9.375 45.3125C9.375 47.9014 11.4736 50 14.0625 50L35.9374 50C38.5263 50 40.6249 47.9014 40.6249 45.3125ZM49.9997 10.3514L49.9997 11.5233C49.9997 11.8469 49.7374 12.1093 49.4138 12.1093L47.656 12.1093L47.656 12.6952C47.656 13.0188 47.3937 13.2811 47.0701 13.2811L42.9685 13.2811L42.9685 8.59363L47.0701 8.59363C47.3937 8.59363 47.656 8.85596 47.656 9.17957L47.656 9.7655L49.4138 9.7655C49.7374 9.7655 49.9997 10.0278 49.9997 10.3514ZM7.03127 8.59399L2.92971 8.59399C2.60611 8.59399 2.34378 8.85633 2.34378 9.17993L2.34378 9.76587L0.585967 9.76587C0.262363 9.76587 3.05641e-05 10.0282 3.05176e-05 10.3518L3.05176e-05 11.5237C3.05176e-05 11.8473 0.262363 12.1096 0.585967 12.1096L2.34378 12.1096L2.34378 12.6956C2.34378 13.0192 2.60611 13.2815 2.92971 13.2815L7.03127 13.2815L7.03127 8.59399ZM2.9298 17.9688L7.03136 17.9688L7.03136 22.6563L2.9298 22.6563C2.6062 22.6563 2.34387 22.3939 2.34387 22.0703L2.34387 21.4844L0.586058 21.4844C0.262455 21.4844 0.00012207 21.222 0.00012207 20.8984L0.00012207 19.7266C0.000122117 19.403 0.262455 19.1406 0.586058 19.1406L2.34387 19.1406L2.34387 18.5547C2.34387 18.2311 2.6062 17.9688 2.9298 17.9688ZM49.9998 20.8988L49.9998 19.7269C49.9998 19.4033 49.7375 19.141 49.4139 19.141L47.6561 19.141L47.6561 18.5551C47.6561 18.2314 47.3937 17.9691 47.0701 17.9691L42.9686 17.9691L42.9686 22.6566L47.0701 22.6566C47.3937 22.6566 47.6561 22.3943 47.6561 22.0707L47.6561 21.4847L49.4139 21.4847C49.7375 21.4847 49.9998 21.2224 49.9998 20.8988ZM7.03145 27.3439L2.9299 27.3439C2.60629 27.3439 2.34396 27.6062 2.34396 27.9298L2.34396 28.5157L0.58615 28.5157C0.262546 28.5157 0.00021367 28.7781 0.000213623 29.1017L0.000213623 30.2736C0.000213623 30.5972 0.262546 30.8595 0.58615 30.8595L2.34396 30.8595L2.34396 31.4454C2.34396 31.769 2.60629 32.0314 2.9299 32.0314L7.03145 32.0314L7.03145 27.3439ZM49.9997 29.1017L49.9997 30.2736C49.9997 30.5972 49.7374 30.8595 49.4138 30.8595L47.656 30.8595L47.656 31.4454C47.656 31.769 47.3937 32.0314 47.0701 32.0314L42.9685 32.0314L42.9685 27.3439L47.0701 27.3439C47.3937 27.3439 47.656 27.6062 47.656 27.9298L47.656 28.5157L49.4138 28.5157C49.7374 28.5157 49.9997 28.7781 49.9997 29.1017ZM2.92993 36.7185L7.03148 36.7185L7.03148 41.406L2.92993 41.406C2.60632 41.406 2.34399 41.1437 2.34399 40.8201L2.34399 40.2341L0.586181 40.2341C0.262577 40.2341 0.000244141 39.9718 0.000244141 39.6482L0.000244141 38.4763C0.000244187 38.1527 0.262577 37.8904 0.586181 37.8904L2.34399 37.8904L2.34399 37.3044C2.34399 36.9808 2.60632 36.7185 2.92993 36.7185ZM49.9998 39.6486L49.9998 38.4767C49.9998 38.1531 49.7374 37.8907 49.4138 37.8907L47.656 37.8907L47.656 37.3048C47.656 36.9812 47.3937 36.7189 47.0701 36.7189L42.9685 36.7189L42.9685 41.4064L47.0701 41.4064C47.3937 41.4064 47.656 41.144 47.656 40.8204L47.656 40.2345L49.4138 40.2345C49.7374 40.2345 49.9998 39.9722 49.9998 39.6486Z" transform="matrix(0.7071067 -0.7071067 0.7071067 0.7071067 1077.133 357.3552)" id="microchip" fill="#4A2F8F" fill-rule="evenodd" stroke="none" />
    <path d="M4.97186 43.7092L20.1549 23.9385C20.8871 22.985 20.8871 21.4391 20.1549 20.4857L4.97186 0.71502C4.23967 -0.238503 3.05249 -0.238503 2.32022 0.71502L0.549365 3.02095C-0.181649 3.97285 -0.183056 5.5156 0.54624 6.46973L12.5791 22.2121L0.546162 37.9545C-0.183134 38.9086 -0.181728 40.4514 0.549287 41.4033L2.32022 43.7092C3.05241 44.6627 4.23959 44.6627 4.97186 43.7092ZM50 39.3027L50 42.5581C50 43.9066 49.1605 44.9997 48.125 44.9997L24.375 44.9997C23.3395 44.9997 22.5 43.9066 22.5 42.5581L22.5 39.3027C22.5 37.9543 23.3395 36.8612 24.375 36.8612L48.125 36.8612C49.1605 36.8612 50 37.9543 50 39.3027Z" transform="matrix(0.7071067 -0.7071067 0.7071067 0.7071067 726.8232 952.9995)" id="terminal" fill="#FC4850" fill-rule="evenodd" stroke="none" />
    <path d="M24.2895 48.7756C24.1195 48.455 23.7666 47.759 23.5052 47.2289C23.2439 46.6988 21.1156 42.4404 18.7757 37.7659C16.4313 33.0823 14.5869 29.1442 14.6673 28.9937C14.7521 28.8349 14.7206 28.7869 14.5919 28.8788C14.4645 28.9699 14.062 28.3977 13.6433 27.5305C13.2433 26.702 12.1278 24.4518 11.1644 22.5301C10.201 20.6084 8.13972 16.488 6.58368 13.3735C5.02763 10.259 2.90973 6.03012 1.87725 3.97591L-7.62939e-06 0.240967L8.36422 0.120484C12.9645 0.0541829 16.7409 0 16.7562 0C16.9548 0 20.7717 8.15626 20.6658 8.35441C20.5845 8.50646 20.611 8.56309 20.7252 8.48148C21.0028 8.28304 23.3672 13.0391 23.1722 13.4039C23.0824 13.5718 23.1089 13.6252 23.2368 13.5339C23.3634 13.4433 25.2982 17.0652 27.8832 22.2316C30.3195 27.1006 32.4807 31.4107 32.6859 31.8097L33.059 32.5351L31.4867 35.6651C30.622 37.3866 29.7374 39.083 29.5209 39.4348C29.3045 39.7865 29.1274 40.1362 29.1274 40.2117C29.1274 40.2873 28.2517 42.06 27.1814 44.151C26.1111 46.2421 25.0922 48.2692 24.917 48.6557L24.5986 49.3584L24.2895 48.7756ZM32.8063 20.6424C34.1437 23.3373 35.4338 25.9479 35.6731 26.4438C35.9125 26.9397 36.1616 27.3465 36.2266 27.3474C36.3412 27.3493 37.2355 25.5861 42.9472 14.0964C44.4295 11.1145 45.8181 8.38691 46.0329 8.03511C46.2477 7.68333 46.4234 7.34495 46.4234 7.28321C46.4234 7.17513 48.7332 2.51533 49.5857 0.903644L50 0.120514L33.5432 0.120514L31.0572 5.1205C29.6899 7.87051 28.4541 10.3374 28.3109 10.6024C28.0839 11.023 28.1905 11.3667 29.1476 13.3006C29.7509 14.5196 30.3358 15.4516 30.4475 15.3718C30.5592 15.292 30.5885 15.3428 30.5126 15.4847C30.4368 15.6266 31.469 17.9476 32.8063 20.6424ZM32.1749 48.5542C31.8769 49.1506 31.6322 49.7198 31.6306 49.8193C31.6292 49.9187 33.7904 50 36.4332 50L41.2383 50L40.3404 48.1212C39.8466 47.0879 38.7861 44.8677 37.9838 43.1874C37.1816 41.5072 36.4477 40.1596 36.353 40.1928C36.2584 40.226 35.8747 40.901 35.5004 41.6928C34.6505 43.491 32.8923 47.1187 32.1749 48.5542Z" transform="matrix(0.7071067 -0.7071067 0.7071067 0.7071067 363.7105 65.4212)" id="vxworks" fill="#FC4850" fill-rule="evenodd" stroke="none" />
    <path d="M30.0015 27.4569L15.0028 27.4569C10.8626 27.4569 7.50348 24.1028 7.50348 19.9686L7.50348 1.87183C7.50348 0.83439 8.33934 -0.000244141 9.37832 -0.000244141L40.0007 -0.000244141C45.5158 -0.000244141 49.9998 4.47714 49.9998 9.98417C49.9998 15.4912 45.5158 19.9686 40.0007 19.9686L37.5009 19.9686C37.5009 24.1028 34.1418 27.4569 30.0015 27.4569ZM40.0008 4.99231C42.7584 4.99231 45.0004 7.231 45.0004 9.98452C45.0004 12.738 42.7584 14.9767 40.0008 14.9767L37.501 14.9767L37.501 4.99231L40.0008 4.99231ZM3.77742 34.9455L43.7271 34.9455C47.4533 34.9455 48.4845 29.9532 46.5316 29.9532L0.965162 29.9532C-0.987795 29.9532 0.0589899 34.9455 3.77742 34.9455Z" transform="matrix(0.7071067 -0.7071067 0.7071067 0.7071067 1433.998 655.4199)" id="coffee" fill="#D52429" fill-rule="evenodd" stroke="none" />
    <path d="M25 0L0 8.95092L3.82579 42.1198L25 53.898L46.1742 42.1198L50 8.95092L25 0ZM34.8168 41.1215L40.6638 41.1215L24.9997 5.95544L9.3476 41.1215L15.2066 41.1215L18.3587 33.2533L31.6647 33.2533L34.8168 41.1215ZM29.5833 28.4049L20.4158 28.4049L24.9996 17.3846L29.5833 28.4049Z" transform="matrix(0.7071067 -0.7071067 0.7071067 0.7071067 1431.999 354.7766)" id="angular" fill="#D52429" fill-rule="evenodd" stroke="none" />
    <path d="M23.7593 49.943C23.5941 49.9163 23.349 49.8549 23.2145 49.8065C22.9154 49.699 2.1541 39.0436 1.83271 38.8326C1.14114 38.3787 0.595084 37.6931 0.220669 36.8086C0.200591 36.7612 0.182343 36.7222 0.165761 36.6826C0.123989 36.5828 0.0927798 36.4795 0.0694597 36.2299L0.0203242 36.0823L0.0203284 35.7262C0.00758364 35.3918 0.00189618 33.3774 0.00139668 30.6979C0.000431973 29.5496 0.000393384 28.1695 0.000350509 26.5076C0.000335502 26.0426 0.000324783 25.5555 0.000290483 25.0453C0.000254039 24.5179 0.000200444 24.0151 0.000144705 23.5358C-0.000369803 18.8667 -0.000637776 16.4203 0.0203284 15.0909L0.0203284 13.953L0.069449 13.8055C0.0931528 13.5558 0.124879 13.4509 0.167304 13.3496C0.18463 13.3082 0.203742 13.2674 0.224822 13.2176C0.545279 12.4601 1.14378 11.7083 1.75521 11.2953C2.00855 11.1241 22.3639 0.63508 22.9938 0.351061C23.5123 0.117308 24.1826 -0.000244141 24.997 -0.000244141C25.8072 -0.000246048 26.4713 0.113809 26.9731 0.339136C27.6266 0.632554 47.9717 11.114 48.2387 11.2948C48.8429 11.7039 49.4746 12.4845 49.7741 13.1921C49.7933 13.2375 49.8108 13.2755 49.8268 13.3141C49.8714 13.4217 49.9042 13.5333 49.9283 13.8179L49.9735 13.9533L49.9735 15.0742C49.9819 15.6127 49.987 16.3325 49.99 17.3055C49.9915 17.7766 49.9925 18.3086 49.9931 18.9102C49.9935 19.2625 49.9938 19.6382 49.994 20.039C50.0019 22.9665 50.002 26.4733 49.9944 29.4666C49.9942 31.581 49.9923 33.0476 49.9834 34.0776C49.9809 34.5114 49.9776 34.8587 49.9734 35.135L49.9734 36.0453L49.9343 36.1609C49.9117 36.468 49.8805 36.5839 49.8377 36.6962C49.8244 36.7311 49.81 36.7656 49.7944 36.8054C49.5018 37.5501 48.8696 38.3518 48.2396 38.7768C48.0085 38.9327 28.5328 48.9735 27.1457 49.6519C26.7365 49.8519 26.4128 49.9433 25.8427 49.9781C25.6578 49.9977 25.4312 50.0006 24.9811 49.9996C24.6393 49.9989 24.4262 49.9965 24.262 49.9863C24.1258 49.9843 24.036 49.9812 24.0174 49.9771L24.0178 49.9771C23.9997 49.9731 23.9809 49.9688 23.9616 49.9644C23.8761 49.9579 23.8071 49.9507 23.7593 49.943ZM26.0175 39.7699C29.0146 39.5936 31.8321 38.7365 34.3083 37.248C35.8699 36.3092 37.4639 34.9271 38.5346 33.5836C38.8718 33.1605 39.3286 32.5223 39.3286 32.4745C39.3286 32.4562 37.7772 31.6436 35.8811 30.6686C33.9849 29.6936 32.3927 28.8729 32.3429 28.8449C32.2566 28.7964 32.2417 28.808 32.0338 29.0836C31.3344 30.0114 30.4381 30.7939 29.4518 31.338C28.6941 31.7561 27.6695 32.1371 26.86 32.3019C26.0041 32.4761 24.7291 32.5243 23.8601 32.4152C21.7537 32.1507 19.8609 31.2029 18.4885 29.7255C17.82 29.0058 17.2105 27.9273 16.9175 26.9455C16.0802 24.1396 17.1284 21.198 19.633 19.3248C22.458 17.2121 26.4809 17.0024 29.5796 18.8062C30.5345 19.3621 31.4473 20.1802 32.0537 21.0239C32.138 21.1411 32.2241 21.2371 32.245 21.2371C32.3182 21.2371 39.295 17.6288 39.3161 17.5801C39.3423 17.5193 38.9756 16.9838 38.5232 16.422C36.3451 13.7174 33.1625 11.7244 29.5588 10.8082C26.8771 10.1263 24.1051 10.0506 21.393 10.5851C15.3106 11.7838 10.4685 15.9481 8.89458 21.334C8.71906 21.9346 8.5702 22.6447 8.47198 23.3499C8.36634 24.1084 8.36575 25.9264 8.4709 26.686C8.87176 29.5817 10.0108 31.9892 12.0664 34.2855C12.8976 35.214 14.2835 36.3734 15.4144 37.0862C18.4923 39.0264 22.2954 39.9889 26.0175 39.7699ZM37.9955 27.0183C38.0056 27.2994 38.0218 27.4194 38.0486 27.4348C38.0767 27.451 38.4654 27.4601 38.9122 27.4551L39.7246 27.4459L39.7358 26.6703C39.7426 26.1818 39.7638 25.8768 39.7923 25.8463C39.8264 25.8097 40.0549 25.7953 40.7184 25.7878L41.5993 25.7779L41.5993 24.2581L40.7055 24.248C40.0543 24.2405 39.8029 24.2257 39.7792 24.1924C39.7613 24.1674 39.7464 23.8004 39.746 23.377L39.7454 22.6071L38.8809 22.6171L38.0164 22.6272L37.9956 23.4241L37.9951 23.4427C37.9937 23.7255 37.9871 23.9712 37.9784 24.0825L37.9748 24.2211L37.079 24.2396L36.1833 24.2581L36.172 25.0266L36.1608 25.795L37.0678 25.805L37.9748 25.815L37.9781 26.047C37.9903 26.1741 37.9955 26.3858 37.9955 26.7114L37.9955 27.0183ZM44.9817 27.4401L44.9822 27.4405C44.9998 27.4438 45.0224 27.4465 45.0507 27.4488C45.1619 27.4554 45.3958 27.4586 45.674 27.4571C45.7252 27.4567 45.7797 27.4561 45.8376 27.4555L46.1081 27.4524L46.682 27.4455L46.6933 26.6503C46.7017 26.0709 46.7185 25.8472 46.7558 25.8261C46.784 25.8102 47.196 25.7969 47.6715 25.7966L48.536 25.7961L48.536 24.2407L47.6299 24.2307L46.7237 24.2207L46.7125 23.4145L46.7013 22.6083L44.9547 22.6083L44.9435 23.4145L44.9323 24.2207L44.0261 24.2307L43.12 24.2407L43.12 25.7961L43.9706 25.7961C44.4385 25.7961 44.851 25.8062 44.8872 25.8186C44.9445 25.8381 44.9531 25.9446 44.9531 26.6279C44.9531 27.0606 44.966 27.4261 44.9817 27.4401Z" transform="matrix(0.7071066 -0.7071066 0.7071066 0.7071066 1433.997 944.9968)" id="cpp" fill="#1DAAA9" fill-rule="evenodd" stroke="none" />
    <path d="M17.024 48.219L21.7893 49.9475C22.2892 50.1331 22.8048 49.7718 22.9533 49.1468L33.6165 3.22879C33.7571 2.60379 33.4759 1.94949 32.9759 1.77371L28.2107 0.0451978C27.7107 -0.130583 27.1873 0.220979 27.0467 0.845979L16.3835 46.764C16.2428 47.389 16.5241 48.0432 17.024 48.219ZM49.7009 25.8553L38.444 39.0487C38.0612 39.4882 37.4675 39.4686 37.1159 38.9901L33.7178 34.4589C33.3506 33.9804 33.3819 33.2186 33.7803 32.7792L40.8578 24.996L33.7803 17.203C33.3819 16.7635 33.3584 16.0018 33.7178 15.5233L37.1159 10.9921C37.4753 10.5233 38.069 10.5038 38.444 10.9432L49.7009 24.1464C50.0993 24.6053 50.0993 25.3964 49.7009 25.8553ZM12.8838 38.9905L16.282 34.4592C16.6413 33.9807 16.6179 33.219 16.2195 32.7795L9.14189 24.9963L16.2195 17.2131C16.6179 16.7737 16.6491 16.012 16.282 15.5335L12.8838 11.0022C12.5322 10.5335 11.9385 10.5042 11.5558 10.9534L0.298835 24.137C-0.099571 24.596 -0.099571 25.387 0.298835 25.846L11.5558 39.0393C11.9385 39.4885 12.5322 39.469 12.8838 38.9905Z" transform="matrix(0.7071067 -0.7071067 0.7071067 0.7071067 1075.709 655.42)" id="code" fill="#1DAAA9" fill-rule="evenodd" stroke="none" />
    <path d="M45 4.6875C45 2.10938 43.3125 0 41.25 0L8.74998 0C6.68748 0 4.99998 2.10938 4.99998 4.6875L4.99998 37.5L45 37.5L45 4.6875ZM9.99997 31.2499L40 31.2499L40 6.24988L9.99997 6.24988L9.99997 31.2499ZM21.6923 25.5516C21.204 26.162 20.4126 26.162 19.9243 25.5516L15.3657 19.8544C14.8774 19.244 14.8774 18.2548 15.3657 17.6444L19.9235 11.9471C20.4118 11.3368 21.2032 11.3368 21.6915 11.9471L22.5751 13.0516C23.0633 13.662 23.0633 14.6512 22.5751 15.2616L19.7852 18.7499L22.5758 22.2372C23.0641 22.8475 23.0641 23.8368 22.5758 24.4471L21.6923 25.5516ZM27.425 24.448L28.3086 25.5525C28.7969 26.1628 29.5883 26.1628 30.0766 25.5525L34.6344 19.8552C35.1227 19.2449 35.1227 18.2556 34.6344 17.6453L30.0766 11.948C29.5883 11.3376 28.7969 11.3376 28.3086 11.948L27.425 13.0525C26.9367 13.6628 26.9367 14.6521 27.425 15.2625L30.2148 18.7498L27.425 22.238C26.9367 22.8484 26.9367 23.8376 27.425 24.448ZM29.8078 40.6249L48.75 40.6249C49.4375 40.6249 50 41.328 50 42.1874L50 43.7499C50 47.1874 47.75 49.9999 45 49.9999L4.99996 49.9999C2.24996 49.9999 -4.19617e-05 47.1874 -4.19617e-05 43.7499L-4.19617e-05 42.1874C-4.19617e-05 41.328 0.562458 40.6249 1.24996 40.6249L19.9398 40.6249C19.9203 42.0438 21.0398 43.7499 22.5 43.7499L27.25 43.7499C28.6586 43.7499 29.75 42.5594 29.8078 40.6249Z" transform="matrix(0.7071067 -0.7071067 0.7071067 0.7071067 721.4197 655.4199)" id="laptop" fill="#FCCD3A" fill-rule="evenodd" stroke="none" />
    <path d="M3.12499 12.5L46.8749 12.5C48.6007 12.5 49.9999 11.1009 49.9999 9.375L49.9999 3.125C49.9999 1.39912 48.6007 0 46.8749 0L3.12499 0C1.39912 0 0 1.39912 0 3.125L0 9.375C0 11.1009 1.39912 12.5 3.12499 12.5ZM33.5938 6.24927C33.5938 4.95483 34.6432 3.90552 35.9376 3.90552C37.232 3.90552 38.2813 4.95483 38.2813 6.24927C38.2813 7.5437 37.232 8.59302 35.9376 8.59302C34.6432 8.59302 33.5938 7.5437 33.5938 6.24927ZM42.1874 3.90607C40.8929 3.90607 39.8436 4.95538 39.8436 6.24982C39.8436 7.54425 40.8929 8.59357 42.1874 8.59357C43.4818 8.59357 44.5311 7.54425 44.5311 6.24982C44.5311 4.95538 43.4818 3.90607 42.1874 3.90607ZM46.8753 28.1241L3.12539 28.1241C1.39951 28.1241 0.000396729 26.725 0.000396729 24.9991L0.000396729 18.7491C0.000396729 17.0232 1.39951 15.6241 3.12539 15.6241L46.8753 15.6241C48.6011 15.6241 50.0002 17.0232 50.0002 18.7491L50.0002 24.9991C50.0002 26.725 48.6011 28.1241 46.8753 28.1241ZM35.9375 19.5311C34.643 19.5311 33.5937 20.5804 33.5937 21.8748C33.5937 23.1693 34.643 24.2186 35.9375 24.2186C37.2319 24.2186 38.2812 23.1693 38.2812 21.8748C38.2812 20.5804 37.2319 19.5311 35.9375 19.5311ZM39.8436 21.8749C39.8436 20.5804 40.8929 19.5311 42.1874 19.5311C43.4818 19.5311 44.5311 20.5804 44.5311 21.8749C44.5311 23.1693 43.4818 24.2186 42.1874 24.2186C40.8929 24.2186 39.8436 23.1693 39.8436 21.8749ZM3.12499 43.7499L46.8749 43.7499C48.6007 43.7499 49.9998 42.3508 49.9998 40.6249L49.9998 34.3749C49.9998 32.649 48.6007 31.2499 46.8749 31.2499L3.12499 31.2499C1.39912 31.2499 0 32.649 0 34.3749L0 40.6249C0 42.3508 1.39912 43.7499 3.12499 43.7499ZM33.5938 37.4996C33.5938 36.2051 34.6431 35.1558 35.9375 35.1558C37.2319 35.1558 38.2812 36.2051 38.2812 37.4996C38.2812 38.794 37.2319 39.8433 35.9375 39.8433C34.6431 39.8433 33.5938 38.794 33.5938 37.4996ZM42.1875 35.1559C40.893 35.1559 39.8437 36.2053 39.8437 37.4997C39.8437 38.7941 40.893 39.8434 42.1875 39.8434C43.4819 39.8434 44.5312 38.7941 44.5312 37.4997C44.5312 36.2053 43.4819 35.1559 42.1875 35.1559Z" transform="matrix(0.7071067 -0.7071067 0.7071067 0.7071067 362.7099 655.42)" id="server" fill="#4A2F8F" fill-rule="evenodd" stroke="none" />
    <path d="M49.9999 11.6072L49.9999 7.14293C49.9999 3.20875 38.802 6.10352e-05 24.9999 6.10352e-05C11.1978 6.10352e-05 -6.10352e-05 3.20875 -6.10352e-05 7.14293L-6.10352e-05 11.6072C-6.10352e-05 15.5414 11.1978 18.7501 24.9999 18.7501C38.802 18.7501 49.9999 15.5414 49.9999 11.6072ZM50.0001 17.1874L50.0001 27.232C50.0001 31.1662 38.8022 34.3749 25.0001 34.3749C11.198 34.3749 0.00012207 31.1662 0.00012207 27.232L0.00012207 17.1874C5.37121 20.424 15.2019 21.9307 25.0001 21.9307C34.7983 21.9307 44.6289 20.424 50.0001 17.1874ZM50.0001 42.8568L50.0001 32.8121C44.6289 36.0488 34.7983 37.5555 25.0001 37.5555C15.2019 37.5555 5.37121 36.0488 0.00012207 32.8121L0.00012207 42.8568C0.00012207 46.7909 11.198 49.9996 25.0001 49.9996C38.8022 49.9996 50.0001 46.7909 50.0001 42.8568Z" transform="matrix(0.7071067 -0.7071067 0.7071067 0.7071067 3.999956 655.421)" id="database" fill="#1DAAA9" fill-rule="evenodd" stroke="none" />
    <path d="M49.0568 22.7731L27.2321 0.942707C25.9741 -0.314236 23.9355 -0.314236 22.6775 0.942707L18.1395 5.47731L23.8895 11.2273C26.9096 10.2072 29.769 13.099 28.7321 16.1023L34.2745 21.6447C38.0948 20.3278 41.1026 25.1045 38.2332 27.9717C35.2768 30.9282 30.3973 27.6514 31.9832 23.8043L26.8103 18.638L26.8103 32.2374C29.6339 33.6369 29.2946 36.9081 27.8237 38.3757C26.3271 39.8714 23.9017 39.8714 22.4051 38.3757C20.4442 36.4115 21.1697 33.1403 23.6607 32.1257L23.6607 18.3981C21.3393 17.4483 20.9152 14.9673 21.5804 13.3757L15.9119 7.70052L0.943167 22.6715C-0.314389 23.9293 -0.314389 25.9684 0.943166 27.2262L22.7746 49.0565C24.0322 50.3134 26.0704 50.3134 27.3281 49.0565L49.0568 27.3278C50.3144 26.0699 50.3144 24.0309 49.0568 22.7731L49.0568 22.7731Z" transform="matrix(0.7071067 -0.7071067 0.7071067 0.7071067 356.175 953)" id="git2" fill="#FCCD3A" stroke="none" />
    <path d="M50 44.6429L50 5.35714C50 2.39847 47.6015 0 44.6429 0L5.35714 0C2.39847 0 0 2.39847 0 5.35714L0 44.6429C0 47.6015 2.39847 50 5.35714 50L44.6429 50C47.6015 50 50 47.6015 50 44.6429ZM24.6654 13.0929C24.6654 14.71 25.6007 15.6464 27.2168 15.6464C28.8619 15.6464 29.7982 14.71 29.7982 13.0929C29.7982 11.4757 28.8641 10.6029 27.219 10.6029C25.6029 10.6029 24.6654 11.4779 24.6654 13.0929ZM42.0904 29.0879L42.8571 31.5846C41.6372 32.1839 39.8515 32.723 38.2388 32.723C34.8638 32.723 33.5881 31.3625 33.5881 28.1571L33.5881 20.7274C33.5881 20.6339 33.5926 20.5692 33.5647 20.525C33.4798 20.3902 33.0956 20.444 31.3761 20.444L31.3761 17.9194C33.8671 17.6359 34.8593 16.3881 35.1707 13.2966L37.8694 13.2966C37.8694 17.0104 37.8059 17.5372 37.951 17.6028C37.9853 17.6183 38.0313 17.608 38.0926 17.608L42.0904 17.608L42.0904 20.444L37.866 20.444L37.866 27.2207C37.866 27.2463 37.8651 27.2792 37.8639 27.3183C37.8434 28.0179 37.7643 30.7124 42.0904 29.0879ZM16.6997 18.1917L22.2299 18.1917L22.2288 20.6002L19.6194 20.7988C20.1294 21.4517 20.6685 22.3591 20.6685 23.6638C20.6685 29.0946 14.2857 28.9283 12.3884 28.3993L11.4531 29.8982C18.8794 30.3513 22.0301 30.2006 22.0301 34.2933C22.0301 37.5544 19.1674 39.397 14.2321 39.397C9.0993 39.397 7.14283 38.0968 7.14059 35.8569C7.14059 34.5801 7.70979 33.9015 8.70309 32.964C7.76671 32.5689 7.45533 31.8602 7.45533 31.0935C7.45533 30.022 8.28457 29.2665 10.0357 27.6627C8.64617 26.9808 7.59707 25.5075 7.59707 23.4093C7.59707 17.6504 13.9096 17.4607 16.6997 18.1917ZM31.6429 30.4511L30.192 30.2524C29.7657 30.1955 29.7378 30.1408 29.7378 29.6843L29.7378 17.9153L23.8673 17.9153L23.5559 20.2111C25.3137 20.8305 25.4532 20.7535 25.4532 21.3461L25.4532 29.6877C25.4532 30.3149 25.4186 30.1988 23.5559 30.4544L23.5559 32.6932L31.6385 32.6932L31.6429 30.4511ZM14.346 20.7142C10.7422 20.7142 10.5793 25.6773 14.2623 25.6773C17.8906 25.6773 17.8014 20.7142 14.346 20.7142ZM17.8061 35.0652C17.8061 33.9681 16.6476 34.102 11.2268 33.7326C10.8574 34.1857 10.4914 34.6668 10.4902 35.2348C10.4902 37.304 17.8061 37.2973 17.8061 35.0652Z" transform="matrix(0.7071067 -0.7071067 0.7071067 0.7071067 719.4223 356.0657)" id="git" fill="#D52429" fill-rule="evenodd" stroke="none" />
    <path d="M18.7272 24.1185L30.6465 24.1185C33.9611 24.1185 36.6061 21.3841 36.6061 18.0582L36.6061 6.68542C36.6061 3.44881 33.883 1.02693 30.6465 0.480056C26.6511 -0.178427 22.3097 -0.144945 18.7272 0.491216C13.6827 1.38407 12.7676 3.24792 12.7676 6.69658L12.7676 11.239L24.698 11.239L24.698 12.7569L8.29225 12.7569C4.82137 12.7569 1.78575 14.8439 0.837119 18.806C-0.256597 23.3484 -0.301239 26.1832 0.837119 30.9265C1.68531 34.4533 3.70534 36.9756 7.17621 36.9756L11.2721 36.9756L11.2721 31.5292C11.2721 27.5895 14.676 24.1185 18.7272 24.1185ZM15.7361 5.93768C15.7361 7.18768 16.7405 8.20331 17.9793 8.20331C19.2181 8.20331 20.2226 7.18768 20.2226 5.93768C20.2226 4.68768 19.207 3.66089 17.9793 3.66089C16.7405 3.66089 15.7473 4.67651 15.7361 5.93768ZM49.0833 18.8061C48.2239 15.3574 46.5945 12.757 43.1236 12.757L38.6483 12.757L38.6483 18.0471C38.6483 22.1543 35.1663 25.6141 31.1932 25.6141L19.2739 25.6141C16.0151 25.6141 13.3143 28.4043 13.3143 31.6744L13.3143 43.036C13.3143 46.2726 16.1267 48.1699 19.2739 49.0963C23.0461 50.2012 26.6732 50.4021 31.1932 49.0963C34.1953 48.2257 37.1528 46.4735 37.1528 43.036L37.1528 38.4936L25.2447 38.4936L25.2447 36.9757L43.1236 36.9757C46.5945 36.9757 47.878 34.5539 49.0833 30.9266C50.3332 27.1878 50.2774 23.594 49.0833 18.8061ZM34.1842 43.7837C34.1842 42.5337 33.1798 41.5181 31.941 41.5181C30.7134 41.5181 29.7089 42.5225 29.6978 43.7837C29.6978 45.0337 30.7134 46.0605 31.941 46.0605C33.1798 46.0605 34.1842 45.0448 34.1842 43.7837Z" transform="matrix(0.7071067 -0.7071067 0.7071067 0.7071067 361.7106 356.2435)" id="python" fill="#1DAAA9" fill-rule="evenodd" stroke="none" />
    <path d="M5.35714 0L44.6429 0C47.6004 0 50 2.39955 50 5.35714L50 44.6429C50 47.6004 47.6004 50 44.6429 50L5.35714 50C2.39955 50 0 47.6004 0 44.6429L0 5.35714C0 2.39955 2.39955 0 5.35714 0ZM29.7657 41.2834C31.1384 44.0066 33.9621 46.0825 38.3259 46.0825C42.779 46.0825 46.1049 43.761 46.1049 39.5423C46.1049 35.6137 43.8616 33.8615 39.8661 32.1539L38.6942 31.6517C36.6741 30.77 35.8036 30.2008 35.8036 28.7945C35.8036 27.6561 36.6741 26.7856 38.0469 26.7856C39.3974 26.7856 40.2679 27.3548 41.0715 28.7945L44.7322 26.4508C43.192 23.7276 41.0491 22.6896 38.0581 22.6896C33.8728 22.6896 31.1831 25.3682 31.1831 28.895C31.1831 32.7231 33.4264 34.5423 36.8192 35.982L37.9911 36.4842C40.1451 37.4329 41.4174 38.0021 41.4174 39.6092C41.4174 40.9597 40.1674 41.9307 38.2255 41.9307C35.9152 41.9307 34.5982 40.7142 33.5938 39.0735L29.7657 41.2834ZM27.2096 38.9956C27.2096 43.8617 24.3525 46.0827 20.1896 46.0827C16.4284 46.0827 14.2521 44.1407 13.136 41.7858L16.9641 39.4756C17.7007 40.7814 18.3704 41.8863 19.9887 41.8863C21.5288 41.8863 22.511 41.2836 22.511 38.9287L22.511 22.9577L27.2097 22.9577L27.2096 38.9956Z" transform="matrix(0.7071067 -0.7071067 0.7071067 0.7071067 4.000021 357.7103)" id="javascript" fill="#D52429" fill-rule="evenodd" stroke="none" />
    <path d="M18.897 49.6609C11.5878 48.2834 4.48802 42.6088 1.2389 35.5472C-0.505062 31.757 -0.407853 30.4793 1.53066 31.7127C3.73948 33.118 4.03255 33.175 9.63737 33.2869C13.8737 33.3716 15.0562 33.3163 15.2973 33.0222C15.7071 32.5225 16.8083 28.6024 16.6224 28.3053C16.5413 28.1757 14.6444 28.0696 12.4072 28.0696C7.93303 28.0696 6.90175 27.8279 5.87525 26.5389C4.93325 25.3559 5.03118 23.0693 6.10291 21.2235C7.75058 18.3857 9.34678 17.7974 15.3993 17.7974L19.8408 17.7974L20.2876 16.2794C20.5333 15.4445 20.8127 14.3744 20.9084 13.9014L21.0557 13.1742C21.0039 13.1249 20.9398 13.0818 20.8621 13.0442L14.2282 13.129L7.37386 13.2165L5.69721 14.0494C4.77505 14.5075 3.22693 15.6139 2.25692 16.5081C0.838597 17.8155 0.458562 18.0445 0.315997 17.6775C-0.0461231 16.7453 2.23419 12.1435 4.49881 9.23631C7.97204 4.7776 13.6456 1.34216 19.195 0.337586C20.0495 0.182908 21.3868 0.0909081 22.8776 0.058547C24.3772 -0.0393534 25.9066 -0.0150528 27.4536 0.135811C28.6269 0.202203 29.6893 0.304659 30.4732 0.441634C37.9632 1.75044 45.0809 7.58077 48.2939 15.0392C48.761 16.1233 49.1041 17.3436 49.0564 17.7509C48.975 18.4462 48.8708 18.4966 47.3509 18.5748C46.7519 18.6056 46.3568 18.6046 46.024 18.7464C45.3287 19.0427 44.9058 19.9627 43.4631 23.1007C43.3711 23.3008 43.275 23.5098 43.1744 23.7283C40.6121 29.2939 40.1275 29.2096 40.1208 23.1972C40.1177 20.5387 40.0091 19.1905 39.7793 18.9634C39.406 18.5947 33.7411 18.4909 33.1956 18.8428C33.0217 18.9549 31.987 20.9207 30.8962 23.2111C28.918 27.3651 28.2474 28.2984 27.7766 27.553C27.6454 27.3452 27.4468 25.4087 27.3354 23.2498C27.224 21.0908 27.0033 19.1682 26.845 18.9773C26.6484 18.7402 25.6329 18.6303 23.6405 18.6303L20.7239 18.6303L20.7261 19.5326C20.7274 20.0288 21.0388 24.4849 21.4181 29.4349C21.91 35.852 22.2118 38.5 22.4698 38.6617C22.6689 38.7865 24.0453 38.8905 25.5284 38.8928C27.7472 38.8963 28.3023 38.8109 28.6602 38.4112C28.8994 38.144 29.9822 36.1701 31.0664 34.0247C32.1505 31.8794 33.2303 29.9661 33.4659 29.773C34.1717 29.1943 34.4952 30.2429 34.4979 33.118C34.4989 34.5405 34.5795 36.3551 34.6762 37.1505L34.852 38.5966L36.0874 38.7796C36.7669 38.8802 38.4025 38.8541 39.7221 38.7216L42.1213 38.4806L45.6797 31.8924C47.6368 28.2689 49.399 25.2433 49.5957 25.1687C49.7052 25.1272 49.785 25.1751 49.8411 25.3412C49.8586 25.3143 49.8701 25.2981 49.8755 25.2933C49.9779 25.2024 50.0088 25.4546 49.9868 25.9163C50.0131 26.2056 49.9994 26.6175 49.952 27.113C49.8844 32.8047 47.325 38.4739 42.8021 42.9346C39.1299 46.5563 34.9641 48.805 30.4732 49.5898C29.6002 49.7423 28.2448 49.8479 26.7475 49.9045C26.4097 49.9212 26.0637 49.9339 25.7138 49.9427C25.5906 50.0187 25.4665 50.017 25.3802 49.95C25.296 49.9515 25.2116 49.9528 25.1271 49.9539C24.9373 49.9664 24.7253 49.9678 24.5028 49.9577C24.2732 49.9576 24.0439 49.9558 23.8161 49.9524C21.79 49.944 19.892 49.8484 18.897 49.6609L18.897 49.6609Z" transform="matrix(0.7071066 -0.7071066 0.7071066 0.7071066 1078.945 951.9431)" id="curtis-wright" fill="#D52429" stroke="none" />
    <path d="M16.9629 25.5408C17.8267 27.3964 20.1406 30.4128 21.9636 32.0598C22.6472 32.6773 23.2816 33.1073 23.3736 33.0154C23.4656 32.9234 22.8471 31.7908 21.9992 30.4985C21.1513 29.2062 20.2479 27.5537 19.9917 26.8263C18.8217 23.5046 19.8293 20.6024 23.2578 17.4197C29.0113 12.0786 31.219 9.67546 32.1967 7.6894C33.2685 5.51239 33.6796 2.8717 33.2197 1.11981C32.7594 -0.633189 32.3144 -0.299286 32.1546 1.91901C31.8771 5.76864 30.0044 8.31404 23.7571 13.3326C16.4511 19.2016 15.1229 21.5882 16.9629 25.5408ZM27.7108 29.5916C29.3849 31.8091 29.8158 33.3034 29.2497 34.9274C28.8282 36.1365 29.3827 36.1805 30.4697 35.0241C31.867 33.5377 32.5193 32.1566 32.5205 30.6818C32.5214 29.4943 32.275 28.9156 30.868 26.8013C29.9585 25.4347 29.1248 23.8395 29.0155 23.2566C28.5364 20.7027 30.3859 18.1155 34.8626 15.0774C38.1987 12.8134 37.4126 12.5981 33.306 14.6511C25.1019 18.7528 23.2537 23.6877 27.7108 29.5916ZM40.682 47.2247C40.6852 47.1327 41.7108 46.3011 42.9638 45.3744C45.7836 43.2891 47.0288 41.4786 47.0288 39.464C47.0288 37.2761 45.3045 35.5534 43.1148 35.5534C42.6079 35.5534 42.1931 35.432 42.1931 35.2835C42.1931 34.435 45.4853 34.4308 47.2335 35.2767C48.8506 36.0595 49.7853 37.3337 49.9747 39.0134C50.2507 41.4625 48.2547 44.0519 44.64 45.9341C42.7676 46.909 40.6836 47.5887 40.6819 47.2252L40.682 47.2247ZM11.9702 40.9666C7.56771 40.5455 5.14132 39.6971 5.51968 38.7111C5.92337 37.6591 12.1406 35.3898 14.0149 35.6103C14.7421 35.6958 14.5898 35.8342 12.7461 36.7632C11.5937 37.3439 10.6568 37.955 10.6641 38.1212C10.7361 39.7644 23.7248 39.9264 34.474 38.4182C36.1295 38.186 37.5372 38.0491 37.6021 38.114C37.6671 38.179 37.63 38.3781 37.5197 38.5566C36.3169 40.5028 21.6176 41.8893 11.9702 40.9666ZM11.0464 44.9538C10.3136 46.3233 12.7232 47.6196 17.1663 48.2462C20.2944 48.6874 28.0183 48.3714 31.7661 47.6489C36.854 46.6682 36.9126 46.6279 35.0151 45.4156L33.8817 44.6915L30.1038 45.2778C27.0378 45.7536 25.3294 45.8357 21.037 45.7135C15.2306 45.5483 13.9886 45.33 13.8297 44.4471C13.772 44.1266 13.6176 43.7508 13.4866 43.612C13.1535 43.259 11.4531 44.194 11.0464 44.9538ZM13.4691 51.5199C11.7004 52.9521 14.3538 54.9374 19.0004 55.6582C23.4594 56.35 28.0586 56.0542 32.4972 54.7902C35.3287 53.9838 35.5452 53.469 33.4631 52.4938C32.0082 51.8124 31.8908 51.804 29.4474 52.2079C24.5898 53.0108 15.9062 52.5108 15.4814 51.4038C15.2499 50.8006 14.289 50.856 13.4691 51.5199ZM7.89013 61.6762C10.2173 61.9376 12.5294 62.1983 13.028 62.2557C13.5267 62.313 17.2668 62.379 21.3393 62.4024C32.7324 62.4679 40.4466 61.3532 45.2533 58.947C46.5232 58.3113 47.0289 57.7527 47.0289 56.9856C47.0289 56.521 46.1991 56.6763 46.007 57.1768C44.7144 60.5452 13.5819 61.9121 5.68281 58.9473C3.83333 58.2531 4.10602 57.6556 6.76636 56.5729C9.56553 55.4338 9.01722 54.972 5.83256 55.7865C3.17701 56.4657 1.52207 57.2548 0.53517 58.3124C-1.06579 60.028 0.795129 60.8791 7.89013 61.6762ZM19.0723 64.4876C10.783 64.3151 9.82593 64.5623 15.7478 65.3463C18.3998 65.6974 25.0813 65.7472 30.6466 65.5652C30.6215 65.8288 30.8114 66.025 31.1696 66.0475C31.5787 66.0752 31.8167 65.8531 31.7836 65.5241C34.4687 65.4176 36.788 65.2547 38.1039 65.044C43.9898 64.1016 47.4314 62.9424 48.8179 61.4354C49.8127 60.3541 49.434 60.1327 47.8573 60.8739C42.3704 63.453 31.9886 64.7564 19.0723 64.4876Z" transform="matrix(0.7071066 -0.7071066 0.7071066 0.7071066 0.9998112 952.9999)" id="Java" fill="#1DAAA9" fill-rule="evenodd" stroke="none" />
  </g>
</svg>